<?xml version="1.0" encoding="utf-8"?>
<!-- Generator: Adobe Illustrator 19.2.1, SVG Export Plug-In . SVG Version: 6.00 Build 0)  -->
<svg version="1.1" id="Layer_1" xmlns="http://www.w3.org/2000/svg" xmlns:xlink="http://www.w3.org/1999/xlink" x="0px" y="0px"
	 viewBox="0 0 58.5 47.4" style="enable-background:new 0 0 58.5 47.4;" xml:space="preserve">
<style type="text/css">
	.st0{fill:#FFFFFF;}
</style>
<g>
	<g>
		<path class="st0" d="M6.3,38.1C25.1,40.7,38.2,26.4,49,13c0.9-1.2,0.4-3.3-1.3-3.2C41.2,10.1,35,11.2,29,13.4
			c-2.3,0.8-1.3,4.4,1,3.6c5.8-2,11.6-3.2,17.7-3.4c-0.4-1.1-0.9-2.1-1.3-3.2c-9.7,12-21.8,26.5-39,24.1C4.9,34.2,3.9,37.8,6.3,38.1
			L6.3,38.1z"/>
	</g>
</g>
<g>
	<g>
		<path class="st0" d="M46.2,11.7c0,6.2,0,12.5,0,18.7c0,2.4,3.8,2.4,3.8,0c0-6.2,0-12.5,0-18.7C50,9.3,46.2,9.3,46.2,11.7
			L46.2,11.7z"/>
	</g>
</g>
</svg>
