<svg id="Layer_1" xmlns="http://www.w3.org/2000/svg" viewBox="0 0 245.5 85.9"><style>.st0{fill:#fff}.st1{fill:url(#SVGID_1_)}.st2{fill:url(#SVGID_2_)}.st3{fill:url(#SVGID_3_)}.st4{fill:url(#SVGID_4_)}.st5{fill:url(#SVGID_5_)}.st6{fill:url(#SVGID_6_)}.st7{fill:#fff200}</style><path class="st0" d="M7.5 5.2h221.6v61.6H7.5z"/><path class="st0" d="M16.4 19.1H238v61.6H16.4z"/><linearGradient id="SVGID_1_" gradientUnits="userSpaceOnUse" x1="17.945" y1="41.524" x2="223.548" y2="41.524"><stop offset="0" stop-color="#fcd800"/><stop offset=".088" stop-color="#f9c42e"/><stop offset=".232" stop-color="#f6a74a"/><stop offset=".379" stop-color="#f38f58"/><stop offset=".528" stop-color="#f27d5e"/><stop offset=".679" stop-color="#f16f61"/><stop offset=".835" stop-color="#f16563"/><stop offset="1" stop-color="#f16263"/></linearGradient><path class="st1" d="M58.8 25.2v-8.9H43.9v.2c-1.6-.2-3.4-.2-5.3-.2-5.6 0-12.6.2-20.9.7v49c4 .3 8 .5 12 .6.9.2 1.9.3 3 .3 1 0 1.9-.1 2.7-.2h3.2c3.3 0 6.2-.2 8.7-.7h11.6v-8.2c.1-.3.3-.5.4-.8 1.5-3.6 2.3-8.8 2.3-15.4s-.9-12-2.4-15.6c-.2-.3-.3-.5-.4-.8zM43.9 52.7c-.3.7-.7 1.2-1.3 1.6-1.1.4-2.3.6-3.6.6-1.5 0-2.5-.4-3.1-1.3-.5-.9-.8-2.9-.8-5.9 0-3.6.3-5.9.9-6.9.6-1 1.7-1.5 3.3-1.5 1.5 0 3.1.3 4.6.9v12.5zM33.3 29.5H33v-2.1h5.5c2.6 0 4.4.9 5.3 2.8.1.2.1.3.2.5 0 .6.1 1.1.1 1.7-2.6-2-6.3-2.9-10.8-2.9z"/><linearGradient id="SVGID_2_" gradientUnits="userSpaceOnUse" x1="17.945" y1="20.402" x2="223.548" y2="20.402"><stop offset="0" stop-color="#fcd800"/><stop offset=".088" stop-color="#f9c42e"/><stop offset=".232" stop-color="#f6a74a"/><stop offset=".379" stop-color="#f38f58"/><stop offset=".528" stop-color="#f27d5e"/><stop offset=".679" stop-color="#f16f61"/><stop offset=".835" stop-color="#f16563"/><stop offset="1" stop-color="#f16263"/></linearGradient><path class="st2" d="M77.6 14.2H69.4c-2.9 0-4.3 1.5-4.3 4.4v3.6c0 2.9 1.4 4.4 4.3 4.4H77.6c2.9 0 4.3-1.5 4.3-4.4v-3.6c.1-2.9-1.4-4.4-4.3-4.4z"/><linearGradient id="SVGID_3_" gradientUnits="userSpaceOnUse" x1="17.945" y1="40.246" x2="223.548" y2="40.246"><stop offset="0" stop-color="#fcd800"/><stop offset=".088" stop-color="#f9c42e"/><stop offset=".232" stop-color="#f6a74a"/><stop offset=".379" stop-color="#f38f58"/><stop offset=".528" stop-color="#f27d5e"/><stop offset=".679" stop-color="#f16f61"/><stop offset=".835" stop-color="#f16563"/><stop offset="1" stop-color="#f16263"/></linearGradient><path class="st3" d="M145.5 30.4H137v-2.3c0-1.4.2-2.3.7-2.9.5-.5 1.4-.8 2.7-.8H146.7l1.4-8.9c-3.3-.7-7.6-1-13-1h-1.9c-8.7 0-13.1 3.9-13.1 11.6v4.3l-5 .3v-.3h-8.5v-2.3c0-1.4.2-2.3.7-2.9.5-.5 1.4-.8 2.7-.8H116.3l1.4-8.9c-3.3-.7-7.6-1-13-1h-1.9c-8.7 0-13.1 3.9-13.1 11.6v4.3l-6 .4v8.6h6V66h16.9V39.4h13.5V66H137V39.4h8.5v-9z"/><linearGradient id="SVGID_4_" gradientUnits="userSpaceOnUse" x1="17.945" y1="48.127" x2="223.548" y2="48.127"><stop offset="0" stop-color="#fcd800"/><stop offset=".088" stop-color="#f9c42e"/><stop offset=".232" stop-color="#f6a74a"/><stop offset=".379" stop-color="#f38f58"/><stop offset=".528" stop-color="#f27d5e"/><stop offset=".679" stop-color="#f16f61"/><stop offset=".835" stop-color="#f16563"/><stop offset="1" stop-color="#f16263"/></linearGradient><path class="st4" d="M172.2 51.5c5.1 0 8.7-.7 10.8-2.2 2.1-1.4 3.1-3.8 3-7.2 0-4.3-1.5-7.4-4.4-9.5-2.9-2.1-7.6-3.1-14.1-3.1h-1.8c-7.4 0-12.6 1.4-15.6 4.3s-4.5 7.8-4.5 14.7c0 6.2 1.6 10.8 4.7 13.8s8.3 4.5 15.5 4.5H167.7c7.3 0 13.1-1.1 17.4-3.3l-1.3-8.9c-.6.1-1.2.1-1.8.2v-.2c-4.5.5-8.8.7-13 .8-1.6 0-2.9-.3-3.7-.8-.9-.6-1.5-1.6-1.7-3.1h8.6zm-3-7.5c-.4.3-1.4.5-3.1.5H163c.1-2.3.5-3.8 1.1-4.5.5-.5 1.4-.8 2.6-.9 1 .1 1.8.2 2.2.5.5.4.8 1.1.8 2.2.1 1.1-.1 1.9-.5 2.2z"/><linearGradient id="SVGID_5_" gradientUnits="userSpaceOnUse" x1="17.945" y1="48.127" x2="223.548" y2="48.127"><stop offset="0" stop-color="#fcd800"/><stop offset=".088" stop-color="#f9c42e"/><stop offset=".232" stop-color="#f6a74a"/><stop offset=".379" stop-color="#f38f58"/><stop offset=".528" stop-color="#f27d5e"/><stop offset=".679" stop-color="#f16f61"/><stop offset=".835" stop-color="#f16563"/><stop offset="1" stop-color="#f16263"/></linearGradient><path class="st5" d="M223.7 54.8v-.2c-4.5.5-8.8.7-13 .8-1.6 0-2.9-.3-3.7-.8-.9-.6-1.5-1.6-1.7-3.1h8.9c5.1 0 8.7-.7 10.8-2.2 2.1-1.4 3.1-3.8 3-7.2 0-4.3-1.5-7.4-4.4-9.5-2.9-2.1-7.6-3.1-14.1-3.1h-1.8c-7.4 0-12.6 1.4-15.6 4.3s-4.5 7.8-4.5 14.7c0 6.2 1.6 10.8 4.7 13.8s8.3 4.5 15.5 4.5H209.7c7.3 0 13.1-1.1 17.4-3.3l-1.3-8.9c-.9.1-1.5.1-2.1.2zM206 40c.5-.5 1.4-.8 2.6-.9 1 .1 1.8.2 2.2.5.5.4.8 1.1.8 2.2 0 1.2-.2 1.9-.6 2.2-.4.3-1.4.5-3.1.5h-3.1c.2-2.4.6-3.9 1.2-4.5z"/><linearGradient id="SVGID_6_" gradientUnits="userSpaceOnUse" x1="17.945" y1="48.198" x2="223.548" y2="48.198"><stop offset="0" stop-color="#fcd800"/><stop offset=".088" stop-color="#f9c42e"/><stop offset=".232" stop-color="#f6a74a"/><stop offset=".379" stop-color="#f38f58"/><stop offset=".528" stop-color="#f27d5e"/><stop offset=".679" stop-color="#f16f61"/><stop offset=".835" stop-color="#f16563"/><stop offset="1" stop-color="#f16263"/></linearGradient><path class="st6" d="M67 30.4h-1.8v35.5h16.7V30.4H80z"/><path d="M52.1 18.4c-2.1-1-4.9-1.6-8.2-1.9v8.2c0 1.5.1 3.5.2 6 .7 2 1.1 5.6 1.1 10.7 0 5.6-.4 9.4-1.3 11.2v1.1c-.4.2-.8.4-1.3.5-1 .8-2.3 1.2-4 1.2H33v-26c-4.6 0-7.9 1.4-10 3.9-2.2 2.6-3.2 7.4-3.2 14.4 0 6.2 1 11 3.1 14.2 1.6 2.5 3.8 4 6.8 4.5 1.9.1 3.8.1 5.7.1 4.9-.6 8.3-2.7 10.3-6.5l1.2 5.8h.3c1.9-.4 3.5-.8 4.9-1.5 2.9-1.3 5.2-3.6 6.7-6.8V25.2c-1.5-3.2-3.8-5.5-6.7-6.8zM67 30.4h13v35.5H67zM106.7 30.4h-1.9v-2.3c0-1.4.2-2.3.7-2.9.5-.5 1.4-.8 2.7-.8H114.5l1.4-8.9c-3-.6-6.9-.9-11.5-1-8.4.1-12.7 4-12.7 11.6v4.3l-6 .4v8.6h6V66h13.1V39.4h8.5v-8.9h-6.6z"/><path class="st7" d="M114.2 30.8v8.6h1v-8.7z"/><path d="M137 30.4h-1.9v-2.3c0-1.4.2-2.3.7-2.9.5-.5 1.4-.8 2.7-.8H144.8l1.4-8.9c-3-.6-6.9-.9-11.5-1-8.4.1-12.7 4-12.7 11.6v4.3l-6 .4v8.6h6V66h13.1V39.4h8.5v-8.9H137zM181.1 49.3c2.1-1.4 3.1-3.8 3-7.2 0-4.3-1.5-7.4-4.4-9.5-2.7-2-7.1-3-13.1-3.1-6.9.1-11.9 1.5-14.8 4.3-3 2.9-4.5 7.8-4.5 14.7 0 6.2 1.6 10.8 4.7 13.8 3 2.9 7.9 4.4 14.8 4.5 6.8-.1 12.2-1.2 16.3-3.2l-1.3-8.8c-4.3.4-8.5.6-12.6.6h-1.9c-1.9 0-3.3-.3-4.2-.9-.9-.6-1.5-1.6-1.7-3.1h8.9c5.1.1 8.7-.7 10.8-2.1zm-15-4.9h-5c.1-2.3.5-3.8 1.1-4.5.6-.7 1.9-1 3.8-.9h1.9c1.4 0 2.4.2 2.9.5.5.4.8 1.1.8 2.2 0 1.2-.2 1.9-.6 2.2-.4.3-1.4.5-3.1.5h-1.8zM223.7 54.8c-4.3.4-8.5.6-12.6.6h-1.9c-1.9 0-3.3-.3-4.2-.9-.9-.6-1.5-1.6-1.7-3.1h8.9c5.1 0 8.7-.7 10.8-2.2 2.1-1.4 3.1-3.8 3-7.2 0-4.3-1.5-7.4-4.4-9.5-2.7-2-7.1-3-13.1-3.1-6.9.1-11.9 1.5-14.8 4.3-3 2.9-4.5 7.8-4.5 14.7 0 6.2 1.6 10.8 4.7 13.8 3 2.9 7.9 4.4 14.8 4.5 6.8-.1 12.2-1.2 16.3-3.2l-1.3-8.7zM204.1 40c.6-.7 1.9-1 3.8-.9h1.9c1.4 0 2.4.2 2.9.5.5.4.8 1.1.8 2.2 0 1.2-.2 1.9-.6 2.2-.4.3-1.4.5-3.1.5H203c.1-2.4.5-3.9 1.1-4.5z"/></svg>