<?xml version="1.0" encoding="utf-8"?>
<!-- Generator: Adobe Illustrator 19.2.1, SVG Export Plug-In . SVG Version: 6.00 Build 0)  -->
<svg version="1.1" id="Layer_1" xmlns="http://www.w3.org/2000/svg" xmlns:xlink="http://www.w3.org/1999/xlink" x="0px" y="0px"
	 viewBox="0 0 283.7 76.1" style="enable-background:new 0 0 283.7 76.1;" xml:space="preserve">
<style type="text/css">
	.st0{fill:url(#SVGID_1_);}
	.st1{fill:url(#SVGID_2_);}
	.st2{fill:url(#SVGID_3_);}
	.st3{fill:url(#SVGID_4_);}
	.st4{fill:url(#SVGID_5_);}
	.st5{fill:url(#SVGID_6_);}
	.st6{fill:url(#SVGID_7_);}
	.st7{fill:url(#SVGID_8_);}
	.st8{fill:url(#SVGID_9_);}
	.st9{fill:url(#SVGID_10_);}
	.st10{fill:url(#SVGID_11_);}
	.st11{fill:url(#SVGID_12_);}
	.st12{fill:url(#SVGID_13_);}
	.st13{fill:url(#SVGID_14_);}
	.st14{fill:url(#SVGID_15_);}
	.st15{fill:url(#SVGID_16_);}
	.st16{fill:url(#SVGID_17_);}
	.st17{fill:url(#SVGID_18_);}
	.st18{fill:url(#SVGID_19_);}
	.st19{fill:url(#SVGID_20_);}
	.st20{fill:url(#SVGID_21_);}
	.st21{fill:url(#SVGID_22_);}
	.st22{fill:url(#SVGID_23_);}
	.st23{fill:url(#SVGID_24_);}
	.st24{fill:url(#SVGID_25_);}
	.st25{fill:url(#SVGID_26_);}
	.st26{fill:url(#SVGID_27_);}
	.st27{fill:url(#SVGID_28_);}
	.st28{fill:url(#SVGID_29_);}
	.st29{fill:url(#SVGID_30_);}
	.st30{fill:url(#SVGID_31_);}
	.st31{fill:url(#SVGID_32_);}
	.st32{fill:url(#SVGID_33_);}
	.st33{fill:url(#SVGID_34_);}
	.st34{fill:url(#SVGID_35_);}
	.st35{fill:url(#SVGID_36_);}
	.st36{fill:url(#SVGID_37_);}
	.st37{fill:url(#SVGID_38_);}
	.st38{fill:url(#SVGID_39_);}
	.st39{fill:url(#SVGID_40_);}
</style>
<g>
	<linearGradient id="SVGID_1_" gradientUnits="userSpaceOnUse" x1="1.0904" y1="39.6862" x2="281.7579" y2="39.6862">
		<stop  offset="0" style="stop-color:#FCD800"/>
		<stop  offset="1.052123e-02" style="stop-color:#FCD608"/>
		<stop  offset="0.1893" style="stop-color:#F7B43F"/>
		<stop  offset="0.3663" style="stop-color:#F49753"/>
		<stop  offset="0.5386" style="stop-color:#F2825D"/>
		<stop  offset="0.7045" style="stop-color:#F17161"/>
		<stop  offset="0.8614" style="stop-color:#F16663"/>
		<stop  offset="1" style="stop-color:#F16263"/>
	</linearGradient>
	<path class="st0" d="M13.9,13.5H8.6v52.4h19.6c0,0,0,0,0,0H13.9V13.5z"/>
	<linearGradient id="SVGID_2_" gradientUnits="userSpaceOnUse" x1="1.0904" y1="39.6852" x2="281.7579" y2="39.6852">
		<stop  offset="0" style="stop-color:#FCD800"/>
		<stop  offset="1.052123e-02" style="stop-color:#FCD608"/>
		<stop  offset="0.1893" style="stop-color:#F7B43F"/>
		<stop  offset="0.3663" style="stop-color:#F49753"/>
		<stop  offset="0.5386" style="stop-color:#F2825D"/>
		<stop  offset="0.7045" style="stop-color:#F17161"/>
		<stop  offset="0.8614" style="stop-color:#F16663"/>
		<stop  offset="1" style="stop-color:#F16263"/>
	</linearGradient>
	<path class="st1" d="M32.2,23.3h-5.2v0c3,0,5,0.8,6.1,2.3c1.1,1.5,1.7,4.3,1.7,8.2v11.9c0,3.9-0.6,6.6-1.7,8.1
		c-1.1,1.5-3.2,2.2-6.1,2.2h5.2c3,0,5-0.7,6.2-2.2c1.1-1.5,1.7-4.2,1.7-8.1V33.9c0-4-0.6-6.7-1.7-8.2C37.2,24.1,35.1,23.3,32.2,23.3
		z"/>
	<linearGradient id="SVGID_3_" gradientUnits="userSpaceOnUse" x1="1.0904" y1="15.1408" x2="281.7579" y2="15.1408">
		<stop  offset="0" style="stop-color:#FCD800"/>
		<stop  offset="1.052123e-02" style="stop-color:#FCD608"/>
		<stop  offset="0.1893" style="stop-color:#F7B43F"/>
		<stop  offset="0.3663" style="stop-color:#F49753"/>
		<stop  offset="0.5386" style="stop-color:#F2825D"/>
		<stop  offset="0.7045" style="stop-color:#F17161"/>
		<stop  offset="0.8614" style="stop-color:#F16663"/>
		<stop  offset="1" style="stop-color:#F16263"/>
	</linearGradient>
	<path class="st2" d="M68.7,19.6c1.5,0.7,3.6,1.1,6.1,1.1c0.4,0,0.8,0,1.2,0c-1.9-0.1-3.6-0.4-4.9-1.1c-1.5-0.7-2.3-2-2.3-3.9v-1
		c0-1.9,0.8-3.2,2.3-4c1.3-0.7,2.9-1,4.9-1.1c-0.4,0-0.8,0-1.2,0c-2.5,0-4.5,0.4-6.1,1.2c-1.5,0.8-2.3,2.1-2.3,4v1
		C66.4,17.6,67.2,18.8,68.7,19.6z"/>
	<linearGradient id="SVGID_4_" gradientUnits="userSpaceOnUse" x1="1.0904" y1="61.2863" x2="281.7579" y2="61.2863">
		<stop  offset="0" style="stop-color:#FCD800"/>
		<stop  offset="1.052123e-02" style="stop-color:#FCD608"/>
		<stop  offset="0.1893" style="stop-color:#F7B43F"/>
		<stop  offset="0.3663" style="stop-color:#F49753"/>
		<stop  offset="0.5386" style="stop-color:#F2825D"/>
		<stop  offset="0.7045" style="stop-color:#F17161"/>
		<stop  offset="0.8614" style="stop-color:#F16663"/>
		<stop  offset="1" style="stop-color:#F16263"/>
	</linearGradient>
	<polygon class="st3" points="58.1,56.7 55.7,56.7 55.7,65.9 92.4,65.9 92.4,65.9 58.1,65.9 	"/>
	<linearGradient id="SVGID_5_" gradientUnits="userSpaceOnUse" x1="1.0904" y1="41.6493" x2="281.7579" y2="41.6493">
		<stop  offset="0" style="stop-color:#FCD800"/>
		<stop  offset="1.052123e-02" style="stop-color:#FCD608"/>
		<stop  offset="0.1893" style="stop-color:#F7B43F"/>
		<stop  offset="0.3663" style="stop-color:#F49753"/>
		<stop  offset="0.5386" style="stop-color:#F2825D"/>
		<stop  offset="0.7045" style="stop-color:#F17161"/>
		<stop  offset="0.8614" style="stop-color:#F16663"/>
		<stop  offset="1" style="stop-color:#F16263"/>
	</linearGradient>
	<polygon class="st4" points="69.9,35.8 58.1,35.8 58.1,26.6 55.7,26.6 55.7,35.8 67.5,35.8 67.5,56.7 69.9,56.7 	"/>
	<linearGradient id="SVGID_6_" gradientUnits="userSpaceOnUse" x1="1.0904" y1="15.828" x2="281.7579" y2="15.828">
		<stop  offset="0" style="stop-color:#FCD800"/>
		<stop  offset="1.052123e-02" style="stop-color:#FCD608"/>
		<stop  offset="0.1893" style="stop-color:#F7B43F"/>
		<stop  offset="0.3663" style="stop-color:#F49753"/>
		<stop  offset="0.5386" style="stop-color:#F2825D"/>
		<stop  offset="0.7045" style="stop-color:#F17161"/>
		<stop  offset="0.8614" style="stop-color:#F16663"/>
		<stop  offset="1" style="stop-color:#F16263"/>
	</linearGradient>
	<path class="st5" d="M138.9,12.5l-1.3,8.1c0.2,0,0.3,0.1,0.5,0.1l1.3-8.2c-1.7-0.6-3.5-1-5.4-1.2c-1.9-0.2-3.7-0.3-5.5-0.3
		c-0.1,0-0.2,0-0.2,0c1.7,0,3.5,0.1,5.3,0.3C135.4,11.5,137.2,11.9,138.9,12.5z"/>
	<linearGradient id="SVGID_7_" gradientUnits="userSpaceOnUse" x1="1.0904" y1="35.7587" x2="281.7579" y2="35.7587">
		<stop  offset="0" style="stop-color:#FCD800"/>
		<stop  offset="1.052123e-02" style="stop-color:#FCD608"/>
		<stop  offset="0.1893" style="stop-color:#F7B43F"/>
		<stop  offset="0.3663" style="stop-color:#F49753"/>
		<stop  offset="0.5386" style="stop-color:#F2825D"/>
		<stop  offset="0.7045" style="stop-color:#F17161"/>
		<stop  offset="0.8614" style="stop-color:#F16663"/>
		<stop  offset="1" style="stop-color:#F16263"/>
	</linearGradient>
	<rect x="100.9" y="35.8" class="st6" width="10" height="0"/>
	<linearGradient id="SVGID_8_" gradientUnits="userSpaceOnUse" x1="1.0904" y1="46.2316" x2="281.7579" y2="46.2316">
		<stop  offset="0" style="stop-color:#FCD800"/>
		<stop  offset="1.052123e-02" style="stop-color:#FCD608"/>
		<stop  offset="0.1893" style="stop-color:#F7B43F"/>
		<stop  offset="0.3663" style="stop-color:#F49753"/>
		<stop  offset="0.5386" style="stop-color:#F2825D"/>
		<stop  offset="0.7045" style="stop-color:#F17161"/>
		<stop  offset="0.8614" style="stop-color:#F16663"/>
		<stop  offset="1" style="stop-color:#F16263"/>
	</linearGradient>
	<polygon class="st7" points="123.9,35.8 123.9,65.9 111.4,65.9 111.4,65.9 124.4,65.9 124.4,35.8 138.8,35.8 138.8,26.6 
		138.3,26.6 138.3,35.8 	"/>
	<linearGradient id="SVGID_9_" gradientUnits="userSpaceOnUse" x1="1.0904" y1="23.027" x2="281.7579" y2="23.027">
		<stop  offset="0" style="stop-color:#FCD800"/>
		<stop  offset="1.052123e-02" style="stop-color:#FCD608"/>
		<stop  offset="0.1893" style="stop-color:#F7B43F"/>
		<stop  offset="0.3663" style="stop-color:#F49753"/>
		<stop  offset="0.5386" style="stop-color:#F2825D"/>
		<stop  offset="0.7045" style="stop-color:#F17161"/>
		<stop  offset="0.8614" style="stop-color:#F16663"/>
		<stop  offset="1" style="stop-color:#F16263"/>
	</linearGradient>
	<path class="st8" d="M125.9,21.1c1-1,2.3-1.6,4.1-1.6c-0.1,0-0.2,0-0.3,0c-1.9,0-3.3,0.5-4.3,1.6c-1,1.1-1.5,2.6-1.5,4.6v0.9h0.5
		v-0.9C124.4,23.7,124.9,22.1,125.9,21.1z"/>
	<linearGradient id="SVGID_10_" gradientUnits="userSpaceOnUse" x1="1.0904" y1="15.828" x2="281.7579" y2="15.828">
		<stop  offset="0" style="stop-color:#FCD800"/>
		<stop  offset="1.052123e-02" style="stop-color:#FCD608"/>
		<stop  offset="0.1893" style="stop-color:#F7B43F"/>
		<stop  offset="0.3663" style="stop-color:#F49753"/>
		<stop  offset="0.5386" style="stop-color:#F2825D"/>
		<stop  offset="0.7045" style="stop-color:#F17161"/>
		<stop  offset="0.8614" style="stop-color:#F16663"/>
		<stop  offset="1" style="stop-color:#F16263"/>
	</linearGradient>
	<path class="st9" d="M181.9,12.5l-1.2,7.5c1,0.2,2.1,0.4,3.3,0.8l1.3-8.2c-1.7-0.6-3.5-1-5.4-1.2c-1.9-0.2-3.7-0.3-5.5-0.3
		c-0.6,0-1.1,0-1.7,0c1.3,0,2.5,0.1,3.8,0.3C178.3,11.5,180.1,11.9,181.9,12.5z"/>
	<linearGradient id="SVGID_11_" gradientUnits="userSpaceOnUse" x1="1.0904" y1="23.027" x2="281.7579" y2="23.027">
		<stop  offset="0" style="stop-color:#FCD800"/>
		<stop  offset="1.052123e-02" style="stop-color:#FCD608"/>
		<stop  offset="0.1893" style="stop-color:#F7B43F"/>
		<stop  offset="0.3663" style="stop-color:#F49753"/>
		<stop  offset="0.5386" style="stop-color:#F2825D"/>
		<stop  offset="0.7045" style="stop-color:#F17161"/>
		<stop  offset="0.8614" style="stop-color:#F16663"/>
		<stop  offset="1" style="stop-color:#F16263"/>
	</linearGradient>
	<path class="st10" d="M171.7,21.1c0.7-0.8,1.7-1.3,3-1.5c-0.7-0.1-1.4-0.1-2-0.1c-1.9,0-3.3,0.5-4.3,1.6c-1,1.1-1.5,2.6-1.5,4.6
		v0.9h3.4v-0.9C170.3,23.7,170.8,22.1,171.7,21.1z"/>
	<linearGradient id="SVGID_12_" gradientUnits="userSpaceOnUse" x1="1.0904" y1="46.2316" x2="281.7579" y2="46.2316">
		<stop  offset="0" style="stop-color:#FCD800"/>
		<stop  offset="1.052123e-02" style="stop-color:#FCD608"/>
		<stop  offset="0.1893" style="stop-color:#F7B43F"/>
		<stop  offset="0.3663" style="stop-color:#F49753"/>
		<stop  offset="0.5386" style="stop-color:#F2825D"/>
		<stop  offset="0.7045" style="stop-color:#F17161"/>
		<stop  offset="0.8614" style="stop-color:#F16663"/>
		<stop  offset="1" style="stop-color:#F16263"/>
	</linearGradient>
	<polygon class="st11" points="166.9,35.8 166.9,65.9 157.2,65.9 157.2,65.9 170.3,65.9 170.3,35.8 184.7,35.8 184.7,26.6 
		181.3,26.6 181.3,35.8 	"/>
	<linearGradient id="SVGID_13_" gradientUnits="userSpaceOnUse" x1="1.0904" y1="35.7587" x2="281.7579" y2="35.7587">
		<stop  offset="0" style="stop-color:#FCD800"/>
		<stop  offset="1.052123e-02" style="stop-color:#FCD608"/>
		<stop  offset="0.1893" style="stop-color:#F7B43F"/>
		<stop  offset="0.3663" style="stop-color:#F49753"/>
		<stop  offset="0.5386" style="stop-color:#F2825D"/>
		<stop  offset="0.7045" style="stop-color:#F17161"/>
		<stop  offset="0.8614" style="stop-color:#F16663"/>
		<stop  offset="1" style="stop-color:#F16263"/>
	</linearGradient>
	<rect x="146.7" y="35.8" class="st12" width="7.1" height="0"/>
	<linearGradient id="SVGID_14_" gradientUnits="userSpaceOnUse" x1="1.0904" y1="53.5944" x2="281.7579" y2="53.5944">
		<stop  offset="0" style="stop-color:#FCD800"/>
		<stop  offset="1.052123e-02" style="stop-color:#FCD608"/>
		<stop  offset="0.1893" style="stop-color:#F7B43F"/>
		<stop  offset="0.3663" style="stop-color:#F49753"/>
		<stop  offset="0.5386" style="stop-color:#F2825D"/>
		<stop  offset="0.7045" style="stop-color:#F17161"/>
		<stop  offset="0.8614" style="stop-color:#F16663"/>
		<stop  offset="1" style="stop-color:#F16263"/>
	</linearGradient>
	<path class="st13" d="M205.6,52.4v-3.5h0.2c0,0,0,0,0,0h-6.5v3.5c0,1.8,0.5,3.3,1.5,4.4c1,1.1,2.7,1.6,5.1,1.6
		c1.2,0,2.3-0.1,3.3-0.4c-0.9-0.3-1.6-0.7-2.1-1.2C206.1,55.7,205.6,54.2,205.6,52.4z"/>
	<linearGradient id="SVGID_15_" gradientUnits="userSpaceOnUse" x1="1.0904" y1="37.3954" x2="281.7579" y2="37.3954">
		<stop  offset="0" style="stop-color:#FCD800"/>
		<stop  offset="1.052123e-02" style="stop-color:#FCD608"/>
		<stop  offset="0.1893" style="stop-color:#F7B43F"/>
		<stop  offset="0.3663" style="stop-color:#F49753"/>
		<stop  offset="0.5386" style="stop-color:#F2825D"/>
		<stop  offset="0.7045" style="stop-color:#F17161"/>
		<stop  offset="0.8614" style="stop-color:#F16663"/>
		<stop  offset="1" style="stop-color:#F16263"/>
	</linearGradient>
	<path class="st14" d="M224.2,41.2v7.7h-0.6c0,0,0,0,0,0h5.5v-7.8c0-1.7,0.2-3.2,0.6-4.6c-0.8-2.6-2.2-4.8-4.4-6.5
		c-3.3-2.7-8-4-13.9-4c-1.1,0-2.1,0.1-3.1,0.2c4.5,0.4,8.1,1.7,10.8,3.9C222.6,32.6,224.2,36.4,224.2,41.2z"/>
	<linearGradient id="SVGID_16_" gradientUnits="userSpaceOnUse" x1="1.0904" y1="38.049" x2="281.7579" y2="38.049">
		<stop  offset="0" style="stop-color:#FCD800"/>
		<stop  offset="1.052123e-02" style="stop-color:#FCD608"/>
		<stop  offset="0.1893" style="stop-color:#F7B43F"/>
		<stop  offset="0.3663" style="stop-color:#F49753"/>
		<stop  offset="0.5386" style="stop-color:#F2825D"/>
		<stop  offset="0.7045" style="stop-color:#F17161"/>
		<stop  offset="0.8614" style="stop-color:#F16663"/>
		<stop  offset="1" style="stop-color:#F16263"/>
	</linearGradient>
	<path class="st15" d="M205.6,39.8c0-2.2,0.4-3.7,1.2-4.6c0.4-0.4,0.9-0.7,1.5-0.9c-0.8-0.3-1.8-0.4-3.1-0.4c-2.4,0-3.9,0.4-4.7,1.3
		c-0.8,0.9-1.2,2.4-1.2,4.6v2.6h6.3V39.8z"/>
	<linearGradient id="SVGID_17_" gradientUnits="userSpaceOnUse" x1="1.0904" y1="60.141" x2="281.7579" y2="60.141">
		<stop  offset="0" style="stop-color:#FCD800"/>
		<stop  offset="1.052123e-02" style="stop-color:#FCD608"/>
		<stop  offset="0.1893" style="stop-color:#F7B43F"/>
		<stop  offset="0.3663" style="stop-color:#F49753"/>
		<stop  offset="0.5386" style="stop-color:#F2825D"/>
		<stop  offset="0.7045" style="stop-color:#F17161"/>
		<stop  offset="0.8614" style="stop-color:#F16663"/>
		<stop  offset="1" style="stop-color:#F16263"/>
	</linearGradient>
	<path class="st16" d="M220.7,53.8c-0.3,0.5-0.6,1-0.9,1.4l5.4,1.4c-1.7,3.8-4,6.4-6.8,7.8c-2.2,1.1-5.2,1.8-9.2,2
		c0.8,0.1,1.7,0.1,2.6,0.1c5.8,0,10-0.7,12.8-2.1c2.4-1.2,4.4-3.3,6-6.3c-0.3-0.6-0.5-1.3-0.8-2L220.7,53.8z"/>
	<linearGradient id="SVGID_18_" gradientUnits="userSpaceOnUse" x1="1.0904" y1="53.5944" x2="281.7579" y2="53.5944">
		<stop  offset="0" style="stop-color:#FCD800"/>
		<stop  offset="1.052123e-02" style="stop-color:#FCD608"/>
		<stop  offset="0.1893" style="stop-color:#F7B43F"/>
		<stop  offset="0.3663" style="stop-color:#F49753"/>
		<stop  offset="0.5386" style="stop-color:#F2825D"/>
		<stop  offset="0.7045" style="stop-color:#F17161"/>
		<stop  offset="0.8614" style="stop-color:#F16663"/>
		<stop  offset="1" style="stop-color:#F16263"/>
	</linearGradient>
	<path class="st17" d="M251.4,52.4v-3.5c0,0,0,0,0,0h-9.1v3.5c0,1.8,0.5,3.3,1.5,4.4c1,1.1,2.7,1.6,5.1,1.6c1.9,0,3.5-0.3,4.9-0.9
		c0,0,0,0,0,0c-0.3-0.2-0.6-0.4-0.9-0.7C251.9,55.7,251.4,54.2,251.4,52.4z"/>
	<linearGradient id="SVGID_19_" gradientUnits="userSpaceOnUse" x1="1.0904" y1="37.3954" x2="281.7579" y2="37.3954">
		<stop  offset="0" style="stop-color:#FCD800"/>
		<stop  offset="1.052123e-02" style="stop-color:#FCD608"/>
		<stop  offset="0.1893" style="stop-color:#F7B43F"/>
		<stop  offset="0.3663" style="stop-color:#F49753"/>
		<stop  offset="0.5386" style="stop-color:#F2825D"/>
		<stop  offset="0.7045" style="stop-color:#F17161"/>
		<stop  offset="0.8614" style="stop-color:#F16663"/>
		<stop  offset="1" style="stop-color:#F16263"/>
	</linearGradient>
	<path class="st18" d="M267.2,41.2v7.7h-0.3c0,0,0,0,0,0h9.5v-7.7c0-4.8-1.7-8.5-5-11.2s-8-4-13.9-4c-1.6,0-3.1,0.1-4.6,0.3
		c3.8,0.5,6.9,1.8,9.4,3.7C265.5,32.6,267.2,36.4,267.2,41.2z"/>
	<linearGradient id="SVGID_20_" gradientUnits="userSpaceOnUse" x1="1.0904" y1="38.049" x2="281.7579" y2="38.049">
		<stop  offset="0" style="stop-color:#FCD800"/>
		<stop  offset="1.052123e-02" style="stop-color:#FCD608"/>
		<stop  offset="0.1893" style="stop-color:#F7B43F"/>
		<stop  offset="0.3663" style="stop-color:#F49753"/>
		<stop  offset="0.5386" style="stop-color:#F2825D"/>
		<stop  offset="0.7045" style="stop-color:#F17161"/>
		<stop  offset="0.8614" style="stop-color:#F16663"/>
		<stop  offset="1" style="stop-color:#F16263"/>
	</linearGradient>
	<path class="st19" d="M252.6,35.1C252.6,35.1,252.7,35.1,252.6,35.1c-0.7-0.9-2.2-1.3-4.4-1.3c-2.4,0-3.9,0.4-4.7,1.3
		c-0.8,0.9-1.2,2.4-1.2,4.6v2.6h9.1v-2.6C251.4,37.6,251.8,36,252.6,35.1z"/>
	<linearGradient id="SVGID_21_" gradientUnits="userSpaceOnUse" x1="1.0904" y1="60.141" x2="281.7579" y2="60.141">
		<stop  offset="0" style="stop-color:#FCD800"/>
		<stop  offset="1.052123e-02" style="stop-color:#FCD608"/>
		<stop  offset="0.1893" style="stop-color:#F7B43F"/>
		<stop  offset="0.3663" style="stop-color:#F49753"/>
		<stop  offset="0.5386" style="stop-color:#F2825D"/>
		<stop  offset="0.7045" style="stop-color:#F17161"/>
		<stop  offset="0.8614" style="stop-color:#F16663"/>
		<stop  offset="1" style="stop-color:#F16263"/>
	</linearGradient>
	<path class="st20" d="M266.5,53.8c-0.4,0.8-0.9,1.5-1.4,2l3,0.8c-1.7,3.8-4,6.4-6.8,7.8c-1.9,1-4.4,1.6-7.6,1.9
		c1.3,0.2,2.6,0.2,3.9,0.2c5.8,0,10-0.7,12.8-2.1c2.8-1.4,5.1-4,6.8-7.8L266.5,53.8z"/>
	<linearGradient id="SVGID_22_" gradientUnits="userSpaceOnUse" x1="1.0904" y1="39.6862" x2="281.7579" y2="39.6862">
		<stop  offset="0" style="stop-color:#FCD800"/>
		<stop  offset="1.052123e-02" style="stop-color:#FCD608"/>
		<stop  offset="0.1893" style="stop-color:#F7B43F"/>
		<stop  offset="0.3663" style="stop-color:#F49753"/>
		<stop  offset="0.5386" style="stop-color:#F2825D"/>
		<stop  offset="0.7045" style="stop-color:#F17161"/>
		<stop  offset="0.8614" style="stop-color:#F16663"/>
		<stop  offset="1" style="stop-color:#F16263"/>
	</linearGradient>
	<path class="st21" d="M26.9,23.3C26.9,23.3,26.9,23.3,26.9,23.3l-5.3,0V56h5.2c0,0,0,0,0,0h0V23.3z"/>
	<linearGradient id="SVGID_23_" gradientUnits="userSpaceOnUse" x1="1.0904" y1="39.6852" x2="281.7579" y2="39.6852">
		<stop  offset="0" style="stop-color:#FCD800"/>
		<stop  offset="1.052123e-02" style="stop-color:#FCD608"/>
		<stop  offset="0.1893" style="stop-color:#F7B43F"/>
		<stop  offset="0.3663" style="stop-color:#F49753"/>
		<stop  offset="0.5386" style="stop-color:#F2825D"/>
		<stop  offset="0.7045" style="stop-color:#F17161"/>
		<stop  offset="0.8614" style="stop-color:#F16663"/>
		<stop  offset="1" style="stop-color:#F16263"/>
	</linearGradient>
	<path class="st22" d="M33.6,13.5H13.9v0h14.4c6.1,0,10.9,1.7,14.4,5.2c3.5,3.5,5.2,8.1,5.2,13.8v14.5c0,5.7-1.7,10.3-5.2,13.7
		c-3.5,3.4-8.3,5.1-14.4,5.1h5.2c6.2,0,11-1.7,14.4-5.1c3.5-3.4,5.2-8,5.2-13.7V32.6c0-5.8-1.7-10.4-5.2-13.8
		C44.5,15.2,39.7,13.5,33.6,13.5z"/>
	<linearGradient id="SVGID_24_" gradientUnits="userSpaceOnUse" x1="1.0904" y1="46.2306" x2="281.7579" y2="46.2306">
		<stop  offset="0" style="stop-color:#FCD800"/>
		<stop  offset="1.052123e-02" style="stop-color:#FCD608"/>
		<stop  offset="0.1893" style="stop-color:#F7B43F"/>
		<stop  offset="0.3663" style="stop-color:#F49753"/>
		<stop  offset="0.5386" style="stop-color:#F2825D"/>
		<stop  offset="0.7045" style="stop-color:#F17161"/>
		<stop  offset="0.8614" style="stop-color:#F16663"/>
		<stop  offset="1" style="stop-color:#F16263"/>
	</linearGradient>
	<polygon class="st23" points="83,26.6 58.1,26.6 58.1,26.6 80.6,26.6 80.6,56.7 92.4,56.7 92.4,65.9 94.8,65.9 94.8,56.7 83,56.7 	
		"/>
	<linearGradient id="SVGID_25_" gradientUnits="userSpaceOnUse" x1="1.0904" y1="15.1398" x2="281.7579" y2="15.1398">
		<stop  offset="0" style="stop-color:#FCD800"/>
		<stop  offset="1.052123e-02" style="stop-color:#FCD608"/>
		<stop  offset="0.1893" style="stop-color:#F7B43F"/>
		<stop  offset="0.3663" style="stop-color:#F49753"/>
		<stop  offset="0.5386" style="stop-color:#F2825D"/>
		<stop  offset="0.7045" style="stop-color:#F17161"/>
		<stop  offset="0.8614" style="stop-color:#F16663"/>
		<stop  offset="1" style="stop-color:#F16263"/>
	</linearGradient>
	<path class="st24" d="M83.1,14.7v1c0,1.8-0.8,3.1-2.4,3.9c-1.3,0.6-2.9,1-4.8,1.1c0.4,0,0.8,0,1.2,0c2.4,0,4.5-0.4,6-1.1
		c1.6-0.7,2.4-2,2.4-3.9v-1c0-1.9-0.8-3.2-2.3-4c-1.5-0.8-3.6-1.2-6.1-1.2c-0.4,0-0.8,0-1.2,0c1.9,0.1,3.6,0.5,4.9,1.1
		C82.4,11.5,83.1,12.9,83.1,14.7z"/>
	<linearGradient id="SVGID_26_" gradientUnits="userSpaceOnUse" x1="1.0904" y1="56.704" x2="281.7579" y2="56.704">
		<stop  offset="0" style="stop-color:#FCD800"/>
		<stop  offset="1.052123e-02" style="stop-color:#FCD608"/>
		<stop  offset="0.1893" style="stop-color:#F7B43F"/>
		<stop  offset="0.3663" style="stop-color:#F49753"/>
		<stop  offset="0.5386" style="stop-color:#F2825D"/>
		<stop  offset="0.7045" style="stop-color:#F17161"/>
		<stop  offset="0.8614" style="stop-color:#F16663"/>
		<stop  offset="1" style="stop-color:#F16263"/>
	</linearGradient>
	<rect x="58.1" y="56.7" class="st25" width="9.4" height="0"/>
	<linearGradient id="SVGID_27_" gradientUnits="userSpaceOnUse" x1="1.0904" y1="20.0822" x2="281.7579" y2="20.0822">
		<stop  offset="0" style="stop-color:#FCD800"/>
		<stop  offset="1.052123e-02" style="stop-color:#FCD608"/>
		<stop  offset="0.1893" style="stop-color:#F7B43F"/>
		<stop  offset="0.3663" style="stop-color:#F49753"/>
		<stop  offset="0.5386" style="stop-color:#F2825D"/>
		<stop  offset="0.7045" style="stop-color:#F17161"/>
		<stop  offset="0.8614" style="stop-color:#F16663"/>
		<stop  offset="1" style="stop-color:#F16263"/>
	</linearGradient>
	<path class="st26" d="M130.2,19.5c-0.1,0-0.1,0-0.2,0c1,0,2.2,0.1,3.4,0.3c1.3,0.2,2.7,0.5,4.2,0.9l0-0.1c-1.3-0.4-2.6-0.7-3.7-0.8
		C132.6,19.6,131.3,19.5,130.2,19.5z"/>
	<linearGradient id="SVGID_28_" gradientUnits="userSpaceOnUse" x1="1.0904" y1="23.3544" x2="281.7579" y2="23.3544">
		<stop  offset="0" style="stop-color:#FCD800"/>
		<stop  offset="1.052123e-02" style="stop-color:#FCD608"/>
		<stop  offset="0.1893" style="stop-color:#F7B43F"/>
		<stop  offset="0.3663" style="stop-color:#F49753"/>
		<stop  offset="0.5386" style="stop-color:#F2825D"/>
		<stop  offset="0.7045" style="stop-color:#F17161"/>
		<stop  offset="0.8614" style="stop-color:#F16663"/>
		<stop  offset="1" style="stop-color:#F16263"/>
	</linearGradient>
	<path class="st27" d="M111.4,26.6v-2c0-4.2,1.5-7.5,4.6-9.9c3-2.4,7.1-3.6,12.3-3.7c-0.1,0-0.2,0-0.3,0c-5.3,0-9.5,1.2-12.6,3.7
		c-3.1,2.4-4.6,5.8-4.6,9.9v2h-10.5v9.2h0.5v-9.2H111.4z"/>
	<linearGradient id="SVGID_29_" gradientUnits="userSpaceOnUse" x1="1.0904" y1="50.8131" x2="281.7579" y2="50.8131">
		<stop  offset="0" style="stop-color:#FCD800"/>
		<stop  offset="1.052123e-02" style="stop-color:#FCD608"/>
		<stop  offset="0.1893" style="stop-color:#F7B43F"/>
		<stop  offset="0.3663" style="stop-color:#F49753"/>
		<stop  offset="0.5386" style="stop-color:#F2825D"/>
		<stop  offset="0.7045" style="stop-color:#F17161"/>
		<stop  offset="0.8614" style="stop-color:#F16663"/>
		<stop  offset="1" style="stop-color:#F16263"/>
	</linearGradient>
	<rect x="110.9" y="35.8" class="st28" width="0.5" height="30.1"/>
	<linearGradient id="SVGID_30_" gradientUnits="userSpaceOnUse" x1="1.0904" y1="26.5946" x2="281.7579" y2="26.5946">
		<stop  offset="0" style="stop-color:#FCD800"/>
		<stop  offset="1.052123e-02" style="stop-color:#FCD608"/>
		<stop  offset="0.1893" style="stop-color:#F7B43F"/>
		<stop  offset="0.3663" style="stop-color:#F49753"/>
		<stop  offset="0.5386" style="stop-color:#F2825D"/>
		<stop  offset="0.7045" style="stop-color:#F17161"/>
		<stop  offset="0.8614" style="stop-color:#F16663"/>
		<stop  offset="1" style="stop-color:#F16263"/>
	</linearGradient>
	<rect x="124.4" y="26.6" class="st29" width="13.9" height="0"/>
	<linearGradient id="SVGID_31_" gradientUnits="userSpaceOnUse" x1="1.0904" y1="26.5946" x2="281.7579" y2="26.5946">
		<stop  offset="0" style="stop-color:#FCD800"/>
		<stop  offset="1.052123e-02" style="stop-color:#FCD608"/>
		<stop  offset="0.1893" style="stop-color:#F7B43F"/>
		<stop  offset="0.3663" style="stop-color:#F49753"/>
		<stop  offset="0.5386" style="stop-color:#F2825D"/>
		<stop  offset="0.7045" style="stop-color:#F17161"/>
		<stop  offset="0.8614" style="stop-color:#F16663"/>
		<stop  offset="1" style="stop-color:#F16263"/>
	</linearGradient>
	<rect x="170.3" y="26.6" class="st30" width="11" height="0"/>
	<linearGradient id="SVGID_32_" gradientUnits="userSpaceOnUse" x1="1.0904" y1="50.8131" x2="281.7579" y2="50.8131">
		<stop  offset="0" style="stop-color:#FCD800"/>
		<stop  offset="1.052123e-02" style="stop-color:#FCD608"/>
		<stop  offset="0.1893" style="stop-color:#F7B43F"/>
		<stop  offset="0.3663" style="stop-color:#F49753"/>
		<stop  offset="0.5386" style="stop-color:#F2825D"/>
		<stop  offset="0.7045" style="stop-color:#F17161"/>
		<stop  offset="0.8614" style="stop-color:#F16663"/>
		<stop  offset="1" style="stop-color:#F16263"/>
	</linearGradient>
	<rect x="153.8" y="35.8" class="st31" width="3.4" height="30.1"/>
	<linearGradient id="SVGID_33_" gradientUnits="userSpaceOnUse" x1="1.0904" y1="23.3544" x2="281.7579" y2="23.3544">
		<stop  offset="0" style="stop-color:#FCD800"/>
		<stop  offset="1.052123e-02" style="stop-color:#FCD608"/>
		<stop  offset="0.1893" style="stop-color:#F7B43F"/>
		<stop  offset="0.3663" style="stop-color:#F49753"/>
		<stop  offset="0.5386" style="stop-color:#F2825D"/>
		<stop  offset="0.7045" style="stop-color:#F17161"/>
		<stop  offset="0.8614" style="stop-color:#F16663"/>
		<stop  offset="1" style="stop-color:#F16263"/>
	</linearGradient>
	<path class="st32" d="M157.2,26.6v-2c0-4.2,1.5-7.5,4.6-9.9c2.7-2.2,6.4-3.4,10.9-3.6c-0.6,0-1.1-0.1-1.7-0.1
		c-5.3,0-9.5,1.2-12.6,3.7c-3.1,2.4-4.6,5.8-4.6,9.9v2h-10.5v9.2h3.4v-9.2H157.2z"/>
	<linearGradient id="SVGID_34_" gradientUnits="userSpaceOnUse" x1="1.0904" y1="20.0822" x2="281.7579" y2="20.0822">
		<stop  offset="0" style="stop-color:#FCD800"/>
		<stop  offset="1.052123e-02" style="stop-color:#FCD608"/>
		<stop  offset="0.1893" style="stop-color:#F7B43F"/>
		<stop  offset="0.3663" style="stop-color:#F49753"/>
		<stop  offset="0.5386" style="stop-color:#F2825D"/>
		<stop  offset="0.7045" style="stop-color:#F17161"/>
		<stop  offset="0.8614" style="stop-color:#F16663"/>
		<stop  offset="1" style="stop-color:#F16263"/>
	</linearGradient>
	<path class="st33" d="M176,19.5c-0.5,0-0.9,0-1.3,0.1c0.5,0,1.1,0.1,1.7,0.2c1.3,0.2,2.7,0.5,4.2,0.9l0.1-0.8
		c-0.3-0.1-0.7-0.1-1-0.2C178.4,19.6,177.2,19.5,176,19.5z"/>
	<linearGradient id="SVGID_35_" gradientUnits="userSpaceOnUse" x1="1.0904" y1="38.0499" x2="281.7579" y2="38.0499">
		<stop  offset="0" style="stop-color:#FCD800"/>
		<stop  offset="1.052123e-02" style="stop-color:#FCD608"/>
		<stop  offset="0.1893" style="stop-color:#F7B43F"/>
		<stop  offset="0.3663" style="stop-color:#F49753"/>
		<stop  offset="0.5386" style="stop-color:#F2825D"/>
		<stop  offset="0.7045" style="stop-color:#F17161"/>
		<stop  offset="0.8614" style="stop-color:#F16663"/>
		<stop  offset="1" style="stop-color:#F16263"/>
	</linearGradient>
	<path class="st34" d="M210,35.2c0.8,1,1.2,2.7,1.2,5.1v2h-5.5v0h11.8v-2c0-2.4-0.4-4.1-1.2-5.1c-0.8-1-2.4-1.4-4.7-1.4
		c-1.3,0-2.3,0.1-3.2,0.4C209,34.4,209.6,34.8,210,35.2z"/>
	<linearGradient id="SVGID_36_" gradientUnits="userSpaceOnUse" x1="1.0904" y1="56.0494" x2="281.7579" y2="56.0494">
		<stop  offset="0" style="stop-color:#FCD800"/>
		<stop  offset="1.052123e-02" style="stop-color:#FCD608"/>
		<stop  offset="0.1893" style="stop-color:#F7B43F"/>
		<stop  offset="0.3663" style="stop-color:#F49753"/>
		<stop  offset="0.5386" style="stop-color:#F2825D"/>
		<stop  offset="0.7045" style="stop-color:#F17161"/>
		<stop  offset="0.8614" style="stop-color:#F16663"/>
		<stop  offset="1" style="stop-color:#F16263"/>
	</linearGradient>
	<path class="st35" d="M210.8,57.5c-0.5,0.2-1,0.4-1.6,0.5c0.8,0.2,1.8,0.4,3,0.4c1.9,0,3.5-0.3,4.9-0.9c1-0.4,1.9-1.2,2.7-2.3
		l-5.4-1.4C213.4,55.6,212.1,56.9,210.8,57.5z"/>
	<linearGradient id="SVGID_37_" gradientUnits="userSpaceOnUse" x1="1.0904" y1="46.2308" x2="281.7579" y2="46.2308">
		<stop  offset="0" style="stop-color:#FCD800"/>
		<stop  offset="1.052123e-02" style="stop-color:#FCD608"/>
		<stop  offset="0.1893" style="stop-color:#F7B43F"/>
		<stop  offset="0.3663" style="stop-color:#F49753"/>
		<stop  offset="0.5386" style="stop-color:#F2825D"/>
		<stop  offset="0.7045" style="stop-color:#F17161"/>
		<stop  offset="0.8614" style="stop-color:#F16663"/>
		<stop  offset="1" style="stop-color:#F16263"/>
	</linearGradient>
	<path class="st36" d="M192.5,51.5V41.1c0-4.7,1.7-8.4,5-11.1c2.7-2.2,6.4-3.5,10.9-3.9c-1-0.1-2-0.2-3.1-0.2c-6,0-10.6,1.3-14,4
		c-3.4,2.7-5,6.4-5,11.1v10.4c0,5.1,1.9,8.8,5.6,11.3c3.7,2.5,8.3,3.7,13.7,3.7c1.3,0,2.5,0,3.7-0.1c-4.3-0.3-8-1.5-11.1-3.6
		C194.4,60.3,192.5,56.5,192.5,51.5z"/>
	<linearGradient id="SVGID_38_" gradientUnits="userSpaceOnUse" x1="1.0904" y1="56.0494" x2="281.7579" y2="56.0494">
		<stop  offset="0" style="stop-color:#FCD800"/>
		<stop  offset="1.052123e-02" style="stop-color:#FCD608"/>
		<stop  offset="0.1893" style="stop-color:#F7B43F"/>
		<stop  offset="0.3663" style="stop-color:#F49753"/>
		<stop  offset="0.5386" style="stop-color:#F2825D"/>
		<stop  offset="0.7045" style="stop-color:#F17161"/>
		<stop  offset="0.8614" style="stop-color:#F16663"/>
		<stop  offset="1" style="stop-color:#F16263"/>
	</linearGradient>
	<path class="st37" d="M253.8,57.4c1,0.6,2.4,0.9,4.2,0.9c1.9,0,3.5-0.3,4.9-0.9c0.8-0.3,1.5-0.9,2.2-1.7l-7.7-2
		C256.3,55.6,255.1,56.8,253.8,57.4z"/>
	<linearGradient id="SVGID_39_" gradientUnits="userSpaceOnUse" x1="1.0904" y1="38.0499" x2="281.7579" y2="38.0499">
		<stop  offset="0" style="stop-color:#FCD800"/>
		<stop  offset="1.052123e-02" style="stop-color:#FCD608"/>
		<stop  offset="0.1893" style="stop-color:#F7B43F"/>
		<stop  offset="0.3663" style="stop-color:#F49753"/>
		<stop  offset="0.5386" style="stop-color:#F2825D"/>
		<stop  offset="0.7045" style="stop-color:#F17161"/>
		<stop  offset="0.8614" style="stop-color:#F16663"/>
		<stop  offset="1" style="stop-color:#F16263"/>
	</linearGradient>
	<path class="st38" d="M263.2,42.3v-2c0-2.4-0.4-4.1-1.2-5.1c-0.8-1-2.4-1.4-4.7-1.4c-2.3,0-3.8,0.4-4.6,1.2
		c0.1,0.1,0.1,0.1,0.2,0.2c0.8,1,1.2,2.7,1.2,5.1v2h-2.6v0H263.2z"/>
	<linearGradient id="SVGID_40_" gradientUnits="userSpaceOnUse" x1="1.0904" y1="46.2308" x2="281.7579" y2="46.2308">
		<stop  offset="0" style="stop-color:#FCD800"/>
		<stop  offset="1.052123e-02" style="stop-color:#FCD608"/>
		<stop  offset="0.1893" style="stop-color:#F7B43F"/>
		<stop  offset="0.3663" style="stop-color:#F49753"/>
		<stop  offset="0.5386" style="stop-color:#F2825D"/>
		<stop  offset="0.7045" style="stop-color:#F17161"/>
		<stop  offset="0.8614" style="stop-color:#F16663"/>
		<stop  offset="1" style="stop-color:#F16263"/>
	</linearGradient>
	<path class="st39" d="M238.3,51.5V41.1c0-4.7,1.7-8.4,5-11.1c2.4-2,5.6-3.2,9.4-3.7c-1.4-0.2-2.9-0.3-4.6-0.3c-6,0-10.6,1.3-14,4
		c-2.2,1.7-3.6,3.9-4.4,6.5c0.4,1.4,0.6,3,0.6,4.7v7.7h-1.3v2.6c0,1.7,0.2,3.3,0.7,4.7l1.5,0.4c-0.3,0.5-0.5,1.1-0.8,1.6
		c0.9,1.9,2.3,3.4,4.2,4.7c3.7,2.5,8.3,3.7,13.7,3.7c1.9,0,3.6-0.1,5.2-0.2c-3.7-0.5-7-1.6-9.7-3.5
		C240.2,60.3,238.3,56.5,238.3,51.5z"/>
</g>
<g>
	<path d="M47.9,47.1V32.6c0-5.8-1.7-10.4-5.2-13.8c-3.5-3.5-8.3-5.2-14.4-5.2H13.9v52.4h14.4c6.1,0,10.9-1.7,14.4-5.1
		C46.1,57.4,47.9,52.8,47.9,47.1z M40,45.8c0,3.9-0.6,6.6-1.7,8.1c-1.1,1.5-3.2,2.2-6.2,2.2h-5.2c0,0,0,0,0,0h-5.2V23.3h5.2
		c0,0,0,0,0,0v0h5.2c3,0,5,0.8,6.2,2.3c1.1,1.5,1.7,4.3,1.7,8.2V45.8z"/>
	<path d="M68.8,14.7v1c0,1.8,0.8,3.1,2.3,3.9c1.3,0.6,2.9,1,4.9,1.1c1.9-0.1,3.5-0.4,4.8-1.1c1.6-0.7,2.4-2,2.4-3.9v-1
		c0-1.9-0.8-3.2-2.3-4c-1.3-0.7-2.9-1-4.9-1.1c-1.9,0.1-3.6,0.5-4.9,1.1C69.5,11.5,68.8,12.9,68.8,14.7z"/>
	<polygon points="80.6,56.7 80.6,26.6 58.1,26.6 58.1,35.8 69.9,35.8 69.9,56.7 67.5,56.7 67.5,56.7 58.1,56.7 58.1,65.9 92.4,65.9 
		92.4,56.7 	"/>
	<path d="M123.9,25.7c0-2,0.5-3.5,1.5-4.6c1-1.1,2.4-1.6,4.3-1.6c0.1,0,0.2,0,0.3,0c0.1,0,0.1,0,0.2,0c1.1,0,2.4,0.1,3.7,0.3
		c1.2,0.2,2.4,0.5,3.7,0.8l1.3-8.1c-1.7-0.6-3.5-1-5.4-1.2c-1.8-0.2-3.5-0.3-5.3-0.3c-5.2,0-9.3,1.3-12.3,3.7
		c-3.1,2.4-4.6,5.8-4.6,9.9v2h-10.5v9.2h10v0h0.5v30.1h12.6V35.8h14.4v-9.2h-13.9v0h-0.5V25.7z"/>
	<path d="M166.9,25.7c0-2,0.5-3.5,1.5-4.6c1-1.1,2.4-1.6,4.3-1.6c0.6,0,1.3,0,2,0.1c0.4-0.1,0.9-0.1,1.3-0.1c1.1,0,2.4,0.1,3.7,0.3
		c0.3,0,0.6,0.1,1,0.2l1.2-7.5c-1.7-0.6-3.5-1-5.4-1.2c-1.3-0.2-2.6-0.2-3.8-0.3c-4.5,0.2-8.2,1.4-10.9,3.6
		c-3.1,2.4-4.6,5.8-4.6,9.9v2h-10.5v9.2h7.1v0h3.4v30.1h9.7V35.8h14.4v-9.2h-11v0h-3.4V25.7z"/>
	<path d="M225.1,56.6l-5.4-1.4c-0.8,1.1-1.7,1.9-2.7,2.3c-1.4,0.6-3,0.9-4.9,0.9c-1.2,0-2.1-0.1-3-0.4c-1,0.2-2.1,0.4-3.3,0.4
		c-2.4,0-4.1-0.5-5.1-1.6c-1-1.1-1.5-2.5-1.5-4.4v-3.5h24.9v-7.7c0-4.8-1.7-8.5-5-11.2c-2.7-2.2-6.3-3.5-10.8-3.9
		c-4.5,0.4-8.1,1.7-10.9,3.9c-3.4,2.7-5,6.4-5,11.1v10.4c0,5.1,1.9,8.8,5.6,11.3c3.1,2.1,6.8,3.3,11.1,3.6c3.9-0.2,7-0.9,9.2-2
		C221.1,63,223.4,60.4,225.1,56.6z M199.4,39.8c0-2.2,0.4-3.7,1.2-4.6c0.8-0.9,2.4-1.3,4.7-1.3c1.3,0,2.3,0.1,3.1,0.4
		c0.8-0.3,1.9-0.4,3.2-0.4c2.4,0,3.9,0.5,4.7,1.4c0.8,1,1.2,2.7,1.2,5.1v2h-11.8v0h-6.3V39.8z"/>
	<path d="M268.1,56.6l-3-0.8c-0.7,0.8-1.4,1.3-2.2,1.7c-1.4,0.6-3,0.9-4.9,0.9c-1.8,0-3.2-0.3-4.2-0.9c0,0,0,0,0,0
		c-1.4,0.6-3,0.9-4.9,0.9c-2.4,0-4.1-0.5-5.1-1.6c-1-1.1-1.5-2.5-1.5-4.4v-3.5h24.9v-7.7c0-4.8-1.7-8.5-5-11.2
		c-2.4-2-5.6-3.2-9.4-3.7c-3.8,0.5-7,1.8-9.4,3.7c-3.4,2.7-5,6.4-5,11.1v10.4c0,5.1,1.9,8.8,5.6,11.3c2.8,1.9,6,3,9.7,3.5
		c3.2-0.3,5.8-0.9,7.6-1.9C264.1,63,266.3,60.4,268.1,56.6z M242.3,39.8c0-2.2,0.4-3.7,1.2-4.6c0.8-0.9,2.4-1.3,4.7-1.3
		c2.2,0,3.7,0.4,4.5,1.2c0.8-0.8,2.3-1.2,4.6-1.2c2.4,0,3.9,0.5,4.7,1.4c0.8,1,1.2,2.7,1.2,5.1v2h-11.8v0h-9.1V39.8z"/>
</g>
<path d="M229.9,56.2c0.2,0.7,0.4,1.3,0.8,2c0.3-0.5,0.5-1,0.8-1.6L229.9,56.2z"/>
<path d="M229.2,48.9h1.3v-7.7c0-1.7-0.2-3.3-0.6-4.7c-0.4,1.4-0.6,2.9-0.6,4.6V48.9z"/>
</svg>
