<svg id="Layer_1" xmlns="http://www.w3.org/2000/svg" viewBox="0 0 283.7 76.1"><style>.st0{fill:url(#SVGID_1_)}.st1{fill:url(#SVGID_2_)}.st2{fill:url(#SVGID_3_)}.st3{fill:url(#SVGID_4_)}.st4{fill:url(#SVGID_5_)}.st5{fill:url(#SVGID_6_)}.st6{fill:url(#SVGID_7_)}.st7{fill:url(#SVGID_8_)}.st8{fill:url(#SVGID_9_)}.st9{fill:url(#SVGID_10_)}.st10{fill:url(#SVGID_11_)}.st11{fill:url(#SVGID_12_)}.st12{fill:url(#SVGID_13_)}.st13{fill:url(#SVGID_14_)}.st14{fill:url(#SVGID_15_)}.st15{fill:url(#SVGID_16_)}.st16{fill:url(#SVGID_17_)}.st17{fill:url(#SVGID_18_)}.st18{fill:url(#SVGID_19_)}.st19{fill:url(#SVGID_20_)}.st20{fill:url(#SVGID_21_)}.st21{fill:url(#SVGID_22_)}.st22{fill:url(#SVGID_23_)}.st23{fill:url(#SVGID_24_)}.st24{fill:url(#SVGID_25_)}.st25{fill:url(#SVGID_26_)}.st26{fill:url(#SVGID_27_)}.st27{fill:url(#SVGID_28_)}.st28{fill:url(#SVGID_29_)}.st29{fill:url(#SVGID_30_)}.st30{fill:url(#SVGID_31_)}.st31{fill:url(#SVGID_32_)}.st32{fill:url(#SVGID_33_)}.st33{fill:url(#SVGID_34_)}.st34{fill:url(#SVGID_35_)}.st35{fill:url(#SVGID_36_)}.st36{fill:url(#SVGID_37_)}.st37{fill:url(#SVGID_38_)}.st38{fill:url(#SVGID_39_)}.st39{fill:url(#SVGID_40_)}</style><linearGradient id="SVGID_1_" gradientUnits="userSpaceOnUse" x1="1.09" y1="39.686" x2="281.758" y2="39.686"><stop offset="0" stop-color="#fcd800"/><stop offset=".011" stop-color="#fcd608"/><stop offset=".189" stop-color="#f7b43f"/><stop offset=".366" stop-color="#f49753"/><stop offset=".539" stop-color="#f2825d"/><stop offset=".705" stop-color="#f17161"/><stop offset=".861" stop-color="#f16663"/><stop offset="1" stop-color="#f16263"/></linearGradient><path class="st0" d="M13.9 13.5H8.6v52.4h19.6-14.3V13.5z"/><linearGradient id="SVGID_2_" gradientUnits="userSpaceOnUse" x1="1.09" y1="39.685" x2="281.758" y2="39.685"><stop offset="0" stop-color="#fcd800"/><stop offset=".011" stop-color="#fcd608"/><stop offset=".189" stop-color="#f7b43f"/><stop offset=".366" stop-color="#f49753"/><stop offset=".539" stop-color="#f2825d"/><stop offset=".705" stop-color="#f17161"/><stop offset=".861" stop-color="#f16663"/><stop offset="1" stop-color="#f16263"/></linearGradient><path class="st1" d="M32.2 23.3H27c3 0 5 .8 6.1 2.3 1.1 1.5 1.7 4.3 1.7 8.2v11.9c0 3.9-.6 6.6-1.7 8.1S29.9 56 27 56h5.2c3 0 5-.7 6.2-2.2 1.1-1.5 1.7-4.2 1.7-8.1V33.9c0-4-.6-6.7-1.7-8.2-1.2-1.6-3.3-2.4-6.2-2.4z"/><linearGradient id="SVGID_3_" gradientUnits="userSpaceOnUse" x1="1.09" y1="15.141" x2="281.758" y2="15.141"><stop offset="0" stop-color="#fcd800"/><stop offset=".011" stop-color="#fcd608"/><stop offset=".189" stop-color="#f7b43f"/><stop offset=".366" stop-color="#f49753"/><stop offset=".539" stop-color="#f2825d"/><stop offset=".705" stop-color="#f17161"/><stop offset=".861" stop-color="#f16663"/><stop offset="1" stop-color="#f16263"/></linearGradient><path class="st2" d="M68.7 19.6c1.5.7 3.6 1.1 6.1 1.1H76c-1.9-.1-3.6-.4-4.9-1.1-1.5-.7-2.3-2-2.3-3.9v-1c0-1.9.8-3.2 2.3-4 1.3-.7 2.9-1 4.9-1.1h-1.2c-2.5 0-4.5.4-6.1 1.2-1.5.8-2.3 2.1-2.3 4v1c0 1.8.8 3 2.3 3.8z"/><linearGradient id="SVGID_4_" gradientUnits="userSpaceOnUse" x1="1.09" y1="61.286" x2="281.758" y2="61.286"><stop offset="0" stop-color="#fcd800"/><stop offset=".011" stop-color="#fcd608"/><stop offset=".189" stop-color="#f7b43f"/><stop offset=".366" stop-color="#f49753"/><stop offset=".539" stop-color="#f2825d"/><stop offset=".705" stop-color="#f17161"/><stop offset=".861" stop-color="#f16663"/><stop offset="1" stop-color="#f16263"/></linearGradient><path class="st3" d="M58.1 56.7h-2.4v9.2h36.7-34.3z"/><linearGradient id="SVGID_5_" gradientUnits="userSpaceOnUse" x1="1.09" y1="41.649" x2="281.758" y2="41.649"><stop offset="0" stop-color="#fcd800"/><stop offset=".011" stop-color="#fcd608"/><stop offset=".189" stop-color="#f7b43f"/><stop offset=".366" stop-color="#f49753"/><stop offset=".539" stop-color="#f2825d"/><stop offset=".705" stop-color="#f17161"/><stop offset=".861" stop-color="#f16663"/><stop offset="1" stop-color="#f16263"/></linearGradient><path class="st4" d="M69.9 35.8H58.1v-9.2h-2.4v9.2h11.8v20.9h2.4z"/><linearGradient id="SVGID_6_" gradientUnits="userSpaceOnUse" x1="1.09" y1="15.828" x2="281.758" y2="15.828"><stop offset="0" stop-color="#fcd800"/><stop offset=".011" stop-color="#fcd608"/><stop offset=".189" stop-color="#f7b43f"/><stop offset=".366" stop-color="#f49753"/><stop offset=".539" stop-color="#f2825d"/><stop offset=".705" stop-color="#f17161"/><stop offset=".861" stop-color="#f16663"/><stop offset="1" stop-color="#f16263"/></linearGradient><path class="st5" d="M138.9 12.5l-1.3 8.1c.2 0 .3.1.5.1l1.3-8.2c-1.7-.6-3.5-1-5.4-1.2-1.9-.2-3.7-.3-5.5-.3h-.2c1.7 0 3.5.1 5.3.3 1.8.2 3.6.6 5.3 1.2z"/><linearGradient id="SVGID_7_" gradientUnits="userSpaceOnUse" x1="1.09" y1="35.759" x2="281.758" y2="35.759"><stop offset="0" stop-color="#fcd800"/><stop offset=".011" stop-color="#fcd608"/><stop offset=".189" stop-color="#f7b43f"/><stop offset=".366" stop-color="#f49753"/><stop offset=".539" stop-color="#f2825d"/><stop offset=".705" stop-color="#f17161"/><stop offset=".861" stop-color="#f16663"/><stop offset="1" stop-color="#f16263"/></linearGradient><linearGradient id="SVGID_8_" gradientUnits="userSpaceOnUse" x1="1.09" y1="46.232" x2="281.758" y2="46.232"><stop offset="0" stop-color="#fcd800"/><stop offset=".011" stop-color="#fcd608"/><stop offset=".189" stop-color="#f7b43f"/><stop offset=".366" stop-color="#f49753"/><stop offset=".539" stop-color="#f2825d"/><stop offset=".705" stop-color="#f17161"/><stop offset=".861" stop-color="#f16663"/><stop offset="1" stop-color="#f16263"/></linearGradient><path class="st7" d="M123.9 35.8v30.1h-12.5 13V35.8h14.4v-9.2h-.5v9.2z"/><linearGradient id="SVGID_9_" gradientUnits="userSpaceOnUse" x1="1.09" y1="23.027" x2="281.758" y2="23.027"><stop offset="0" stop-color="#fcd800"/><stop offset=".011" stop-color="#fcd608"/><stop offset=".189" stop-color="#f7b43f"/><stop offset=".366" stop-color="#f49753"/><stop offset=".539" stop-color="#f2825d"/><stop offset=".705" stop-color="#f17161"/><stop offset=".861" stop-color="#f16663"/><stop offset="1" stop-color="#f16263"/></linearGradient><path class="st8" d="M125.9 21.1c1-1 2.3-1.6 4.1-1.6h-.3c-1.9 0-3.3.5-4.3 1.6s-1.5 2.6-1.5 4.6v.9h.5v-.9c0-2 .5-3.6 1.5-4.6z"/><linearGradient id="SVGID_10_" gradientUnits="userSpaceOnUse" x1="1.09" y1="15.828" x2="281.758" y2="15.828"><stop offset="0" stop-color="#fcd800"/><stop offset=".011" stop-color="#fcd608"/><stop offset=".189" stop-color="#f7b43f"/><stop offset=".366" stop-color="#f49753"/><stop offset=".539" stop-color="#f2825d"/><stop offset=".705" stop-color="#f17161"/><stop offset=".861" stop-color="#f16663"/><stop offset="1" stop-color="#f16263"/></linearGradient><path class="st9" d="M181.9 12.5l-1.2 7.5c1 .2 2.1.4 3.3.8l1.3-8.2c-1.7-.6-3.5-1-5.4-1.2-1.9-.2-3.7-.3-5.5-.3h-1.7c1.3 0 2.5.1 3.8.3 1.8.1 3.6.5 5.4 1.1z"/><linearGradient id="SVGID_11_" gradientUnits="userSpaceOnUse" x1="1.09" y1="23.027" x2="281.758" y2="23.027"><stop offset="0" stop-color="#fcd800"/><stop offset=".011" stop-color="#fcd608"/><stop offset=".189" stop-color="#f7b43f"/><stop offset=".366" stop-color="#f49753"/><stop offset=".539" stop-color="#f2825d"/><stop offset=".705" stop-color="#f17161"/><stop offset=".861" stop-color="#f16663"/><stop offset="1" stop-color="#f16263"/></linearGradient><path class="st10" d="M171.7 21.1c.7-.8 1.7-1.3 3-1.5-.7-.1-1.4-.1-2-.1-1.9 0-3.3.5-4.3 1.6s-1.5 2.6-1.5 4.6v.9h3.4v-.9c0-2 .5-3.6 1.4-4.6z"/><linearGradient id="SVGID_12_" gradientUnits="userSpaceOnUse" x1="1.09" y1="46.232" x2="281.758" y2="46.232"><stop offset="0" stop-color="#fcd800"/><stop offset=".011" stop-color="#fcd608"/><stop offset=".189" stop-color="#f7b43f"/><stop offset=".366" stop-color="#f49753"/><stop offset=".539" stop-color="#f2825d"/><stop offset=".705" stop-color="#f17161"/><stop offset=".861" stop-color="#f16663"/><stop offset="1" stop-color="#f16263"/></linearGradient><path class="st11" d="M166.9 35.8v30.1h-9.7 13.1V35.8h14.4v-9.2h-3.4v9.2z"/><linearGradient id="SVGID_13_" gradientUnits="userSpaceOnUse" x1="1.09" y1="35.759" x2="281.758" y2="35.759"><stop offset="0" stop-color="#fcd800"/><stop offset=".011" stop-color="#fcd608"/><stop offset=".189" stop-color="#f7b43f"/><stop offset=".366" stop-color="#f49753"/><stop offset=".539" stop-color="#f2825d"/><stop offset=".705" stop-color="#f17161"/><stop offset=".861" stop-color="#f16663"/><stop offset="1" stop-color="#f16263"/></linearGradient><linearGradient id="SVGID_14_" gradientUnits="userSpaceOnUse" x1="1.09" y1="53.594" x2="281.758" y2="53.594"><stop offset="0" stop-color="#fcd800"/><stop offset=".011" stop-color="#fcd608"/><stop offset=".189" stop-color="#f7b43f"/><stop offset=".366" stop-color="#f49753"/><stop offset=".539" stop-color="#f2825d"/><stop offset=".705" stop-color="#f17161"/><stop offset=".861" stop-color="#f16663"/><stop offset="1" stop-color="#f16263"/></linearGradient><path class="st13" d="M205.6 52.4v-3.5h.2-6.5v3.5c0 1.8.5 3.3 1.5 4.4 1 1.1 2.7 1.6 5.1 1.6 1.2 0 2.3-.1 3.3-.4-.9-.3-1.6-.7-2.1-1.2-1-1.1-1.5-2.6-1.5-4.4z"/><linearGradient id="SVGID_15_" gradientUnits="userSpaceOnUse" x1="1.09" y1="37.395" x2="281.758" y2="37.395"><stop offset="0" stop-color="#fcd800"/><stop offset=".011" stop-color="#fcd608"/><stop offset=".189" stop-color="#f7b43f"/><stop offset=".366" stop-color="#f49753"/><stop offset=".539" stop-color="#f2825d"/><stop offset=".705" stop-color="#f17161"/><stop offset=".861" stop-color="#f16663"/><stop offset="1" stop-color="#f16263"/></linearGradient><path class="st14" d="M224.2 41.2v7.7h-.6 5.5v-7.8c0-1.7.2-3.2.6-4.6-.8-2.6-2.2-4.8-4.4-6.5-3.3-2.7-8-4-13.9-4-1.1 0-2.1.1-3.1.2 4.5.4 8.1 1.7 10.8 3.9 3.5 2.5 5.1 6.3 5.1 11.1z"/><linearGradient id="SVGID_16_" gradientUnits="userSpaceOnUse" x1="1.09" y1="38.049" x2="281.758" y2="38.049"><stop offset="0" stop-color="#fcd800"/><stop offset=".011" stop-color="#fcd608"/><stop offset=".189" stop-color="#f7b43f"/><stop offset=".366" stop-color="#f49753"/><stop offset=".539" stop-color="#f2825d"/><stop offset=".705" stop-color="#f17161"/><stop offset=".861" stop-color="#f16663"/><stop offset="1" stop-color="#f16263"/></linearGradient><path class="st15" d="M205.6 39.8c0-2.2.4-3.7 1.2-4.6.4-.4.9-.7 1.5-.9-.8-.3-1.8-.4-3.1-.4-2.4 0-3.9.4-4.7 1.3-.8.9-1.2 2.4-1.2 4.6v2.6h6.3v-2.6z"/><linearGradient id="SVGID_17_" gradientUnits="userSpaceOnUse" x1="1.09" y1="60.141" x2="281.758" y2="60.141"><stop offset="0" stop-color="#fcd800"/><stop offset=".011" stop-color="#fcd608"/><stop offset=".189" stop-color="#f7b43f"/><stop offset=".366" stop-color="#f49753"/><stop offset=".539" stop-color="#f2825d"/><stop offset=".705" stop-color="#f17161"/><stop offset=".861" stop-color="#f16663"/><stop offset="1" stop-color="#f16263"/></linearGradient><path class="st16" d="M220.7 53.8c-.3.5-.6 1-.9 1.4l5.4 1.4c-1.7 3.8-4 6.4-6.8 7.8-2.2 1.1-5.2 1.8-9.2 2 .8.1 1.7.1 2.6.1 5.8 0 10-.7 12.8-2.1 2.4-1.2 4.4-3.3 6-6.3-.3-.6-.5-1.3-.8-2l-9.1-2.3z"/><linearGradient id="SVGID_18_" gradientUnits="userSpaceOnUse" x1="1.09" y1="53.594" x2="281.758" y2="53.594"><stop offset="0" stop-color="#fcd800"/><stop offset=".011" stop-color="#fcd608"/><stop offset=".189" stop-color="#f7b43f"/><stop offset=".366" stop-color="#f49753"/><stop offset=".539" stop-color="#f2825d"/><stop offset=".705" stop-color="#f17161"/><stop offset=".861" stop-color="#f16663"/><stop offset="1" stop-color="#f16263"/></linearGradient><path class="st17" d="M251.4 52.4v-3.5h-9.1v3.5c0 1.8.5 3.3 1.5 4.4 1 1.1 2.7 1.6 5.1 1.6 1.9 0 3.5-.3 4.9-.9-.3-.2-.6-.4-.9-.7-1-1.1-1.5-2.6-1.5-4.4z"/><linearGradient id="SVGID_19_" gradientUnits="userSpaceOnUse" x1="1.09" y1="37.395" x2="281.758" y2="37.395"><stop offset="0" stop-color="#fcd800"/><stop offset=".011" stop-color="#fcd608"/><stop offset=".189" stop-color="#f7b43f"/><stop offset=".366" stop-color="#f49753"/><stop offset=".539" stop-color="#f2825d"/><stop offset=".705" stop-color="#f17161"/><stop offset=".861" stop-color="#f16663"/><stop offset="1" stop-color="#f16263"/></linearGradient><path class="st18" d="M267.2 41.2v7.7h-.3 9.5v-7.7c0-4.8-1.7-8.5-5-11.2s-8-4-13.9-4c-1.6 0-3.1.1-4.6.3 3.8.5 6.9 1.8 9.4 3.7 3.2 2.6 4.9 6.4 4.9 11.2z"/><linearGradient id="SVGID_20_" gradientUnits="userSpaceOnUse" x1="1.09" y1="38.049" x2="281.758" y2="38.049"><stop offset="0" stop-color="#fcd800"/><stop offset=".011" stop-color="#fcd608"/><stop offset=".189" stop-color="#f7b43f"/><stop offset=".366" stop-color="#f49753"/><stop offset=".539" stop-color="#f2825d"/><stop offset=".705" stop-color="#f17161"/><stop offset=".861" stop-color="#f16663"/><stop offset="1" stop-color="#f16263"/></linearGradient><path class="st19" d="M252.6 35.1s.1 0 0 0c-.7-.9-2.2-1.3-4.4-1.3-2.4 0-3.9.4-4.7 1.3-.8.9-1.2 2.4-1.2 4.6v2.6h9.1v-2.6c0-2.1.4-3.7 1.2-4.6z"/><linearGradient id="SVGID_21_" gradientUnits="userSpaceOnUse" x1="1.09" y1="60.141" x2="281.758" y2="60.141"><stop offset="0" stop-color="#fcd800"/><stop offset=".011" stop-color="#fcd608"/><stop offset=".189" stop-color="#f7b43f"/><stop offset=".366" stop-color="#f49753"/><stop offset=".539" stop-color="#f2825d"/><stop offset=".705" stop-color="#f17161"/><stop offset=".861" stop-color="#f16663"/><stop offset="1" stop-color="#f16263"/></linearGradient><path class="st20" d="M266.5 53.8c-.4.8-.9 1.5-1.4 2l3 .8c-1.7 3.8-4 6.4-6.8 7.8-1.9 1-4.4 1.6-7.6 1.9 1.3.2 2.6.2 3.9.2 5.8 0 10-.7 12.8-2.1 2.8-1.4 5.1-4 6.8-7.8l-10.7-2.8z"/><linearGradient id="SVGID_22_" gradientUnits="userSpaceOnUse" x1="1.09" y1="39.686" x2="281.758" y2="39.686"><stop offset="0" stop-color="#fcd800"/><stop offset=".011" stop-color="#fcd608"/><stop offset=".189" stop-color="#f7b43f"/><stop offset=".366" stop-color="#f49753"/><stop offset=".539" stop-color="#f2825d"/><stop offset=".705" stop-color="#f17161"/><stop offset=".861" stop-color="#f16663"/><stop offset="1" stop-color="#f16263"/></linearGradient><path class="st21" d="M26.9 23.3h-5.3V56h5.2V23.3z"/><linearGradient id="SVGID_23_" gradientUnits="userSpaceOnUse" x1="1.09" y1="39.685" x2="281.758" y2="39.685"><stop offset="0" stop-color="#fcd800"/><stop offset=".011" stop-color="#fcd608"/><stop offset=".189" stop-color="#f7b43f"/><stop offset=".366" stop-color="#f49753"/><stop offset=".539" stop-color="#f2825d"/><stop offset=".705" stop-color="#f17161"/><stop offset=".861" stop-color="#f16663"/><stop offset="1" stop-color="#f16263"/></linearGradient><path class="st22" d="M33.6 13.5H13.9h14.4c6.1 0 10.9 1.7 14.4 5.2s5.2 8.1 5.2 13.8V47c0 5.7-1.7 10.3-5.2 13.7-3.5 3.4-8.3 5.1-14.4 5.1h5.2c6.2 0 11-1.7 14.4-5.1 3.5-3.4 5.2-8 5.2-13.7V32.6c0-5.8-1.7-10.4-5.2-13.8-3.4-3.6-8.2-5.3-14.3-5.3z"/><linearGradient id="SVGID_24_" gradientUnits="userSpaceOnUse" x1="1.09" y1="46.231" x2="281.758" y2="46.231"><stop offset="0" stop-color="#fcd800"/><stop offset=".011" stop-color="#fcd608"/><stop offset=".189" stop-color="#f7b43f"/><stop offset=".366" stop-color="#f49753"/><stop offset=".539" stop-color="#f2825d"/><stop offset=".705" stop-color="#f17161"/><stop offset=".861" stop-color="#f16663"/><stop offset="1" stop-color="#f16263"/></linearGradient><path class="st23" d="M83 26.6H58.1h22.5v30.1h11.8v9.2h2.4v-9.2H83z"/><linearGradient id="SVGID_25_" gradientUnits="userSpaceOnUse" x1="1.09" y1="15.14" x2="281.758" y2="15.14"><stop offset="0" stop-color="#fcd800"/><stop offset=".011" stop-color="#fcd608"/><stop offset=".189" stop-color="#f7b43f"/><stop offset=".366" stop-color="#f49753"/><stop offset=".539" stop-color="#f2825d"/><stop offset=".705" stop-color="#f17161"/><stop offset=".861" stop-color="#f16663"/><stop offset="1" stop-color="#f16263"/></linearGradient><path class="st24" d="M83.1 14.7v1c0 1.8-.8 3.1-2.4 3.9-1.3.6-2.9 1-4.8 1.1h1.2c2.4 0 4.5-.4 6-1.1 1.6-.7 2.4-2 2.4-3.9v-1c0-1.9-.8-3.2-2.3-4-1.5-.8-3.6-1.2-6.1-1.2h-1.2c1.9.1 3.6.5 4.9 1.1 1.6.9 2.3 2.3 2.3 4.1z"/><linearGradient id="SVGID_26_" gradientUnits="userSpaceOnUse" x1="1.09" y1="56.704" x2="281.758" y2="56.704"><stop offset="0" stop-color="#fcd800"/><stop offset=".011" stop-color="#fcd608"/><stop offset=".189" stop-color="#f7b43f"/><stop offset=".366" stop-color="#f49753"/><stop offset=".539" stop-color="#f2825d"/><stop offset=".705" stop-color="#f17161"/><stop offset=".861" stop-color="#f16663"/><stop offset="1" stop-color="#f16263"/></linearGradient><linearGradient id="SVGID_27_" gradientUnits="userSpaceOnUse" x1="1.09" y1="20.082" x2="281.758" y2="20.082"><stop offset="0" stop-color="#fcd800"/><stop offset=".011" stop-color="#fcd608"/><stop offset=".189" stop-color="#f7b43f"/><stop offset=".366" stop-color="#f49753"/><stop offset=".539" stop-color="#f2825d"/><stop offset=".705" stop-color="#f17161"/><stop offset=".861" stop-color="#f16663"/><stop offset="1" stop-color="#f16263"/></linearGradient><path class="st26" d="M130.2 19.5h-.2c1 0 2.2.1 3.4.3 1.3.2 2.7.5 4.2.9v-.1c-1.3-.4-2.6-.7-3.7-.8-1.3-.2-2.6-.3-3.7-.3z"/><linearGradient id="SVGID_28_" gradientUnits="userSpaceOnUse" x1="1.09" y1="23.354" x2="281.758" y2="23.354"><stop offset="0" stop-color="#fcd800"/><stop offset=".011" stop-color="#fcd608"/><stop offset=".189" stop-color="#f7b43f"/><stop offset=".366" stop-color="#f49753"/><stop offset=".539" stop-color="#f2825d"/><stop offset=".705" stop-color="#f17161"/><stop offset=".861" stop-color="#f16663"/><stop offset="1" stop-color="#f16263"/></linearGradient><path class="st27" d="M111.4 26.6v-2c0-4.2 1.5-7.5 4.6-9.9 3-2.4 7.1-3.6 12.3-3.7h-.3c-5.3 0-9.5 1.2-12.6 3.7-3.1 2.4-4.6 5.8-4.6 9.9v2h-10.5v9.2h.5v-9.2h10.6z"/><linearGradient id="SVGID_29_" gradientUnits="userSpaceOnUse" x1="1.09" y1="50.813" x2="281.758" y2="50.813"><stop offset="0" stop-color="#fcd800"/><stop offset=".011" stop-color="#fcd608"/><stop offset=".189" stop-color="#f7b43f"/><stop offset=".366" stop-color="#f49753"/><stop offset=".539" stop-color="#f2825d"/><stop offset=".705" stop-color="#f17161"/><stop offset=".861" stop-color="#f16663"/><stop offset="1" stop-color="#f16263"/></linearGradient><path class="st28" d="M110.9 35.8h.5v30.1h-.5z"/><linearGradient id="SVGID_30_" gradientUnits="userSpaceOnUse" x1="1.09" y1="26.595" x2="281.758" y2="26.595"><stop offset="0" stop-color="#fcd800"/><stop offset=".011" stop-color="#fcd608"/><stop offset=".189" stop-color="#f7b43f"/><stop offset=".366" stop-color="#f49753"/><stop offset=".539" stop-color="#f2825d"/><stop offset=".705" stop-color="#f17161"/><stop offset=".861" stop-color="#f16663"/><stop offset="1" stop-color="#f16263"/></linearGradient><linearGradient id="SVGID_31_" gradientUnits="userSpaceOnUse" x1="1.09" y1="26.595" x2="281.758" y2="26.595"><stop offset="0" stop-color="#fcd800"/><stop offset=".011" stop-color="#fcd608"/><stop offset=".189" stop-color="#f7b43f"/><stop offset=".366" stop-color="#f49753"/><stop offset=".539" stop-color="#f2825d"/><stop offset=".705" stop-color="#f17161"/><stop offset=".861" stop-color="#f16663"/><stop offset="1" stop-color="#f16263"/></linearGradient><linearGradient id="SVGID_32_" gradientUnits="userSpaceOnUse" x1="1.09" y1="50.813" x2="281.758" y2="50.813"><stop offset="0" stop-color="#fcd800"/><stop offset=".011" stop-color="#fcd608"/><stop offset=".189" stop-color="#f7b43f"/><stop offset=".366" stop-color="#f49753"/><stop offset=".539" stop-color="#f2825d"/><stop offset=".705" stop-color="#f17161"/><stop offset=".861" stop-color="#f16663"/><stop offset="1" stop-color="#f16263"/></linearGradient><path class="st31" d="M153.8 35.8h3.4v30.1h-3.4z"/><linearGradient id="SVGID_33_" gradientUnits="userSpaceOnUse" x1="1.09" y1="23.354" x2="281.758" y2="23.354"><stop offset="0" stop-color="#fcd800"/><stop offset=".011" stop-color="#fcd608"/><stop offset=".189" stop-color="#f7b43f"/><stop offset=".366" stop-color="#f49753"/><stop offset=".539" stop-color="#f2825d"/><stop offset=".705" stop-color="#f17161"/><stop offset=".861" stop-color="#f16663"/><stop offset="1" stop-color="#f16263"/></linearGradient><path class="st32" d="M157.2 26.6v-2c0-4.2 1.5-7.5 4.6-9.9 2.7-2.2 6.4-3.4 10.9-3.6-.6 0-1.1-.1-1.7-.1-5.3 0-9.5 1.2-12.6 3.7-3.1 2.4-4.6 5.8-4.6 9.9v2h-10.5v9.2h3.4v-9.2h10.5z"/><linearGradient id="SVGID_34_" gradientUnits="userSpaceOnUse" x1="1.09" y1="20.082" x2="281.758" y2="20.082"><stop offset="0" stop-color="#fcd800"/><stop offset=".011" stop-color="#fcd608"/><stop offset=".189" stop-color="#f7b43f"/><stop offset=".366" stop-color="#f49753"/><stop offset=".539" stop-color="#f2825d"/><stop offset=".705" stop-color="#f17161"/><stop offset=".861" stop-color="#f16663"/><stop offset="1" stop-color="#f16263"/></linearGradient><path class="st33" d="M176 19.5c-.5 0-.9 0-1.3.1.5 0 1.1.1 1.7.2 1.3.2 2.7.5 4.2.9l.1-.8c-.3-.1-.7-.1-1-.2-1.3-.1-2.5-.2-3.7-.2z"/><linearGradient id="SVGID_35_" gradientUnits="userSpaceOnUse" x1="1.09" y1="38.05" x2="281.758" y2="38.05"><stop offset="0" stop-color="#fcd800"/><stop offset=".011" stop-color="#fcd608"/><stop offset=".189" stop-color="#f7b43f"/><stop offset=".366" stop-color="#f49753"/><stop offset=".539" stop-color="#f2825d"/><stop offset=".705" stop-color="#f17161"/><stop offset=".861" stop-color="#f16663"/><stop offset="1" stop-color="#f16263"/></linearGradient><path class="st34" d="M210 35.2c.8 1 1.2 2.7 1.2 5.1v2h-5.5 11.8v-2c0-2.4-.4-4.1-1.2-5.1-.8-1-2.4-1.4-4.7-1.4-1.3 0-2.3.1-3.2.4.6.2 1.2.6 1.6 1z"/><linearGradient id="SVGID_36_" gradientUnits="userSpaceOnUse" x1="1.09" y1="56.049" x2="281.758" y2="56.049"><stop offset="0" stop-color="#fcd800"/><stop offset=".011" stop-color="#fcd608"/><stop offset=".189" stop-color="#f7b43f"/><stop offset=".366" stop-color="#f49753"/><stop offset=".539" stop-color="#f2825d"/><stop offset=".705" stop-color="#f17161"/><stop offset=".861" stop-color="#f16663"/><stop offset="1" stop-color="#f16263"/></linearGradient><path class="st35" d="M210.8 57.5c-.5.2-1 .4-1.6.5.8.2 1.8.4 3 .4 1.9 0 3.5-.3 4.9-.9 1-.4 1.9-1.2 2.7-2.3l-5.4-1.4c-1 1.8-2.3 3.1-3.6 3.7z"/><linearGradient id="SVGID_37_" gradientUnits="userSpaceOnUse" x1="1.09" y1="46.231" x2="281.758" y2="46.231"><stop offset="0" stop-color="#fcd800"/><stop offset=".011" stop-color="#fcd608"/><stop offset=".189" stop-color="#f7b43f"/><stop offset=".366" stop-color="#f49753"/><stop offset=".539" stop-color="#f2825d"/><stop offset=".705" stop-color="#f17161"/><stop offset=".861" stop-color="#f16663"/><stop offset="1" stop-color="#f16263"/></linearGradient><path class="st36" d="M192.5 51.5V41.1c0-4.7 1.7-8.4 5-11.1 2.7-2.2 6.4-3.5 10.9-3.9-1-.1-2-.2-3.1-.2-6 0-10.6 1.3-14 4-3.4 2.7-5 6.4-5 11.1v10.4c0 5.1 1.9 8.8 5.6 11.3 3.7 2.5 8.3 3.7 13.7 3.7 1.3 0 2.5 0 3.7-.1-4.3-.3-8-1.5-11.1-3.6-3.8-2.4-5.7-6.2-5.7-11.2z"/><linearGradient id="SVGID_38_" gradientUnits="userSpaceOnUse" x1="1.09" y1="56.049" x2="281.758" y2="56.049"><stop offset="0" stop-color="#fcd800"/><stop offset=".011" stop-color="#fcd608"/><stop offset=".189" stop-color="#f7b43f"/><stop offset=".366" stop-color="#f49753"/><stop offset=".539" stop-color="#f2825d"/><stop offset=".705" stop-color="#f17161"/><stop offset=".861" stop-color="#f16663"/><stop offset="1" stop-color="#f16263"/></linearGradient><path class="st37" d="M253.8 57.4c1 .6 2.4.9 4.2.9 1.9 0 3.5-.3 4.9-.9.8-.3 1.5-.9 2.2-1.7l-7.7-2c-1.1 1.9-2.3 3.1-3.6 3.7z"/><linearGradient id="SVGID_39_" gradientUnits="userSpaceOnUse" x1="1.09" y1="38.05" x2="281.758" y2="38.05"><stop offset="0" stop-color="#fcd800"/><stop offset=".011" stop-color="#fcd608"/><stop offset=".189" stop-color="#f7b43f"/><stop offset=".366" stop-color="#f49753"/><stop offset=".539" stop-color="#f2825d"/><stop offset=".705" stop-color="#f17161"/><stop offset=".861" stop-color="#f16663"/><stop offset="1" stop-color="#f16263"/></linearGradient><path class="st38" d="M263.2 42.3v-2c0-2.4-.4-4.1-1.2-5.1-.8-1-2.4-1.4-4.7-1.4-2.3 0-3.8.4-4.6 1.2l.2.2c.8 1 1.2 2.7 1.2 5.1v2h-2.6 11.7z"/><linearGradient id="SVGID_40_" gradientUnits="userSpaceOnUse" x1="1.09" y1="46.231" x2="281.758" y2="46.231"><stop offset="0" stop-color="#fcd800"/><stop offset=".011" stop-color="#fcd608"/><stop offset=".189" stop-color="#f7b43f"/><stop offset=".366" stop-color="#f49753"/><stop offset=".539" stop-color="#f2825d"/><stop offset=".705" stop-color="#f17161"/><stop offset=".861" stop-color="#f16663"/><stop offset="1" stop-color="#f16263"/></linearGradient><path class="st39" d="M238.3 51.5V41.1c0-4.7 1.7-8.4 5-11.1 2.4-2 5.6-3.2 9.4-3.7-1.4-.2-2.9-.3-4.6-.3-6 0-10.6 1.3-14 4-2.2 1.7-3.6 3.9-4.4 6.5.4 1.4.6 3 .6 4.7v7.7H229v2.6c0 1.7.2 3.3.7 4.7l1.5.4c-.3.5-.5 1.1-.8 1.6.9 1.9 2.3 3.4 4.2 4.7 3.7 2.5 8.3 3.7 13.7 3.7 1.9 0 3.6-.1 5.2-.2-3.7-.5-7-1.6-9.7-3.5-3.6-2.6-5.5-6.4-5.5-11.4z"/><g><path d="M47.9 47.1V32.6c0-5.8-1.7-10.4-5.2-13.8-3.5-3.5-8.3-5.2-14.4-5.2H13.9V66h14.4c6.1 0 10.9-1.7 14.4-5.1 3.4-3.5 5.2-8.1 5.2-13.8zM40 45.8c0 3.9-.6 6.6-1.7 8.1s-3.2 2.2-6.2 2.2H21.7V23.3h10.4c3 0 5 .8 6.2 2.3 1.1 1.5 1.7 4.3 1.7 8.2v12zM68.8 14.7v1c0 1.8.8 3.1 2.3 3.9 1.3.6 2.9 1 4.9 1.1 1.9-.1 3.5-.4 4.8-1.1 1.6-.7 2.4-2 2.4-3.9v-1c0-1.9-.8-3.2-2.3-4-1.3-.7-2.9-1-4.9-1.1-1.9.1-3.6.5-4.9 1.1-1.6.8-2.3 2.2-2.3 4zM80.6 56.7V26.6H58.1v9.2h11.8v20.9H58.1v9.2h34.3v-9.2zM123.9 25.7c0-2 .5-3.5 1.5-4.6 1-1.1 2.4-1.6 4.3-1.6h.5c1.1 0 2.4.1 3.7.3 1.2.2 2.4.5 3.7.8l1.3-8.1c-1.7-.6-3.5-1-5.4-1.2-1.8-.2-3.5-.3-5.3-.3-5.2 0-9.3 1.3-12.3 3.7-3.1 2.4-4.6 5.8-4.6 9.9v2h-10.5v9.2h10.5v30.1h12.6V35.8h14.4v-9.2h-14.4v-.9zM166.9 25.7c0-2 .5-3.5 1.5-4.6 1-1.1 2.4-1.6 4.3-1.6.6 0 1.3 0 2 .1.4-.1.9-.1 1.3-.1 1.1 0 2.4.1 3.7.3.3 0 .6.1 1 .2l1.2-7.5c-1.7-.6-3.5-1-5.4-1.2-1.3-.2-2.6-.2-3.8-.3-4.5.2-8.2 1.4-10.9 3.6-3.1 2.4-4.6 5.8-4.6 9.9v2h-10.5v9.2h10.5v30.1h9.7v-30h14.4v-9.2h-14.4v-.9zM225.1 56.6l-5.4-1.4c-.8 1.1-1.7 1.9-2.7 2.3-1.4.6-3 .9-4.9.9-1.2 0-2.1-.1-3-.4-1 .2-2.1.4-3.3.4-2.4 0-4.1-.5-5.1-1.6s-1.5-2.5-1.5-4.4v-3.5h24.9v-7.7c0-4.8-1.7-8.5-5-11.2-2.7-2.2-6.3-3.5-10.8-3.9-4.5.4-8.1 1.7-10.9 3.9-3.4 2.7-5 6.4-5 11.1v10.4c0 5.1 1.9 8.8 5.6 11.3 3.1 2.1 6.8 3.3 11.1 3.6 3.9-.2 7-.9 9.2-2 2.8-1.4 5.1-4 6.8-7.8zm-25.7-16.8c0-2.2.4-3.7 1.2-4.6.8-.9 2.4-1.3 4.7-1.3 1.3 0 2.3.1 3.1.4.8-.3 1.9-.4 3.2-.4 2.4 0 3.9.5 4.7 1.4.8 1 1.2 2.7 1.2 5.1v2h-18.1v-2.6zM268.1 56.6l-3-.8c-.7.8-1.4 1.3-2.2 1.7-1.4.6-3 .9-4.9.9-1.8 0-3.2-.3-4.2-.9-1.4.6-3 .9-4.9.9-2.4 0-4.1-.5-5.1-1.6s-1.5-2.5-1.5-4.4v-3.5h24.9v-7.7c0-4.8-1.7-8.5-5-11.2-2.4-2-5.6-3.2-9.4-3.7-3.8.5-7 1.8-9.4 3.7-3.4 2.7-5 6.4-5 11.1v10.4c0 5.1 1.9 8.8 5.6 11.3 2.8 1.9 6 3 9.7 3.5 3.2-.3 5.8-.9 7.6-1.9 2.8-1.4 5-4 6.8-7.8zm-25.8-16.8c0-2.2.4-3.7 1.2-4.6.8-.9 2.4-1.3 4.7-1.3 2.2 0 3.7.4 4.5 1.2.8-.8 2.3-1.2 4.6-1.2 2.4 0 3.9.5 4.7 1.4.8 1 1.2 2.7 1.2 5.1v2h-20.9v-2.6z"/></g><path d="M229.9 56.2c.2.7.4 1.3.8 2 .3-.5.5-1 .8-1.6l-1.6-.4zM229.2 48.9h1.3v-7.7c0-1.7-.2-3.3-.6-4.7-.4 1.4-.6 2.9-.6 4.6v7.8z"/></svg>