<?xml version="1.0" encoding="utf-8"?>
<!-- Generator: Adobe Illustrator 19.2.1, SVG Export Plug-In . SVG Version: 6.00 Build 0)  -->
<svg version="1.1" id="Layer_1" xmlns="http://www.w3.org/2000/svg" xmlns:xlink="http://www.w3.org/1999/xlink" x="0px" y="0px"
	 viewBox="0 0 226.1 66.1" style="enable-background:new 0 0 226.1 66.1;" xml:space="preserve">
<style type="text/css">
	.st0{fill:#F1F2F2;}
	.st1{fill:url(#SVGID_1_);}
	.st2{fill:url(#SVGID_2_);}
	.st3{fill:url(#SVGID_3_);}
	.st4{fill:url(#SVGID_4_);}
</style>
<rect x="4.5" class="st0" width="221.6" height="61.6"/>
<rect y="4.5" class="st0" width="221.6" height="61.6"/>
<g>
	<linearGradient id="SVGID_1_" gradientUnits="userSpaceOnUse" x1="6.8129" y1="11.5388" x2="221.5054" y2="11.5388">
		<stop  offset="0" style="stop-color:#FCD800"/>
		<stop  offset="8.788961e-02" style="stop-color:#F9C42E"/>
		<stop  offset="0.2318" style="stop-color:#F6A74A"/>
		<stop  offset="0.3789" style="stop-color:#F38F58"/>
		<stop  offset="0.5278" style="stop-color:#F27D5E"/>
		<stop  offset="0.6792" style="stop-color:#F16F61"/>
		<stop  offset="0.8345" style="stop-color:#F16563"/>
		<stop  offset="1" style="stop-color:#F16263"/>
	</linearGradient>
	<path class="st1" d="M60.5,17.8h6.3c0,0,0,0,0,0h3.9c2.9,0,4.3-1.5,4.3-4.4V9.7c0-2.9-1.4-4.4-4.3-4.4h-3.9h-2.4h-3.9
		c-2.9,0-4.3,1.5-4.3,4.4v3.6C56.2,16.3,57.6,17.8,60.5,17.8z"/>
	<linearGradient id="SVGID_2_" gradientUnits="userSpaceOnUse" x1="6.8381" y1="32.5901" x2="221.5307" y2="32.5901">
		<stop  offset="0" style="stop-color:#FCD800"/>
		<stop  offset="8.788961e-02" style="stop-color:#F9C42E"/>
		<stop  offset="0.2318" style="stop-color:#F6A74A"/>
		<stop  offset="0.3789" style="stop-color:#F38F58"/>
		<stop  offset="0.5278" style="stop-color:#F27D5E"/>
		<stop  offset="0.6792" style="stop-color:#F16F61"/>
		<stop  offset="0.8345" style="stop-color:#F16563"/>
		<stop  offset="1" style="stop-color:#F16263"/>
	</linearGradient>
	<path class="st2" d="M45.2,9.6C42,8.1,37.5,7.4,31.7,7.4c-0.9,0-1.8,0-2.7,0c-0.4,0-0.8,0-1.2,0c-5.6,0-12.6,0.2-20.9,0.7v49
		c6.9,0.5,13.8,0.7,20.9,0.7c0.5,0,0.9,0,1.3,0c0.8,0,1.7,0,2.5,0c5.8,0,10.3-0.7,13.5-2.2c3.2-1.4,5.5-4,7.1-7.6
		c1.5-3.6,2.3-8.8,2.3-15.4s-0.8-11.8-2.3-15.4C50.7,13.5,48.4,11,45.2,9.6z M26.1,46.6v-28h1.7c2.6,0,4.4,0.9,5.3,2.8
		c0.9,1.9,1.3,5.6,1.3,11.3c0,5.6-0.4,9.4-1.3,11.3c-0.8,1.7-2.3,2.6-4.4,2.8L26.1,46.6z"/>
	<linearGradient id="SVGID_3_" gradientUnits="userSpaceOnUse" x1="6.8129" y1="39.3347" x2="221.5054" y2="39.3347">
		<stop  offset="0" style="stop-color:#FCD800"/>
		<stop  offset="8.788961e-02" style="stop-color:#F9C42E"/>
		<stop  offset="0.2318" style="stop-color:#F6A74A"/>
		<stop  offset="0.3789" style="stop-color:#F38F58"/>
		<stop  offset="0.5278" style="stop-color:#F27D5E"/>
		<stop  offset="0.6792" style="stop-color:#F16F61"/>
		<stop  offset="0.8345" style="stop-color:#F16563"/>
		<stop  offset="1" style="stop-color:#F16263"/>
	</linearGradient>
	<polygon class="st3" points="60.1,21.6 56.3,21.6 56.3,57.1 71.1,57.1 71.1,57.1 75,57.1 75,21.6 60.1,21.6 	"/>
	<linearGradient id="SVGID_4_" gradientUnits="userSpaceOnUse" x1="6.8129" y1="31.8084" x2="221.5054" y2="31.8084">
		<stop  offset="0" style="stop-color:#FCD800"/>
		<stop  offset="8.788961e-02" style="stop-color:#F9C42E"/>
		<stop  offset="0.2318" style="stop-color:#F6A74A"/>
		<stop  offset="0.3789" style="stop-color:#F38F58"/>
		<stop  offset="0.5278" style="stop-color:#F27D5E"/>
		<stop  offset="0.6792" style="stop-color:#F16F61"/>
		<stop  offset="0.8345" style="stop-color:#F16563"/>
		<stop  offset="1" style="stop-color:#F16263"/>
	</linearGradient>
	<path class="st4" d="M214.8,46.1l-0.1-0.4c-3.9,0.4-7.8,0.7-11.5,0.7c-1.4-0.1-2.4-0.4-3.2-0.8c-0.9-0.6-1.5-1.6-1.7-3.1h5
		c0,0,0,0,0.1,0h3.8c5.1,0,8.7-0.7,10.8-2.2s3.1-3.8,3-7.2c0-4.3-1.5-7.4-4.4-9.5c-2.9-2.1-7.6-3.1-14.1-3.1c-0.6,0-1.2,0-1.8,0
		c-0.7,0-1.4,0-2.1,0c-7.4,0-12.6,1.4-15.6,4.3c-1.9,1.8-3.3,4.5-3.9,8c-0.1-4.1-1.6-7.2-4.3-9.2c-2.9-2.1-7.6-3.1-14.1-3.1
		c-0.6,0-1.2,0-1.8,0c-0.7,0-1.4,0-2.1,0c-7.4,0-12.6,1.4-15.6,4.3c-1,1-1.8,2.2-2.5,3.6v-6.9h-8.4v-2.3c0-1.4,0.2-2.3,0.7-2.9
		c0.5-0.5,1.4-0.8,2.7-0.8h2.4h3.9l1.4-8.9c-3.3-0.7-7.6-1-13-1c-0.4,0-0.8,0-1.2,0c-0.9,0-1.7,0-2.7,0c-8.7,0-13.1,3.9-13.1,11.6
		v4.3l-3,0.2v-0.2h-8.4v-2.3c0-1.4,0.2-2.3,0.7-2.9c0.5-0.5,1.4-0.8,2.7-0.8h2.4h3.9l1.4-8.9c-3.3-0.7-7.6-1-13-1
		c-0.4,0-0.8,0-1.2,0c-0.9,0-1.7,0-2.7,0C85.3,5.7,81,9.5,81,17.3v4.3l-6,0.4v8.6h3.9H81v26.6h15v0h3.9V30.5h4.6h0.9h3h0.9h2.1v26.6
		h15v0h3.9V30.5h4.6h3c-0.8,2.5-1.2,5.5-1.2,9.1c0,6.2,1.6,10.8,4.7,13.8s8.3,4.5,15.5,4.5c0.8,0,1.5,0,2.3,0c0.5,0,1,0,1.6,0
		c7.3,0,13.1-1.1,17.4-3.3l-1.3-8.9c-1.3,0.1-2.6,0.3-3.8,0.4l-0.1-0.4c-3.9,0.4-7.8,0.7-11.5,0.7c-1.4-0.1-2.4-0.4-3.2-0.8
		c-0.9-0.6-1.5-1.6-1.7-3.1h5c0,0,0,0,0.1,0h3.8c5.1,0,8.7-0.7,10.8-2.2c1.2-0.8,2-2,2.5-3.4c-0.1,0.8-0.1,1.7-0.1,2.6
		c0,6.2,1.6,10.8,4.7,13.8s8.3,4.5,15.5,4.5c0.8,0,1.5,0,2.3,0c0.5,0,1,0,1.6,0c7.3,0,13.1-1.1,17.4-3.3l-1.3-8.9
		C217.3,45.9,216,46,214.8,46.1z M157.2,31.1c0.4-0.4,0.9-0.6,1.7-0.8c0.5,0.1,0.9,0.2,1.1,0.4c0.5,0.4,0.8,1.1,0.8,2.2
		c0,1.2-0.2,1.9-0.6,2.2c-0.4,0.3-1.4,0.5-3.1,0.5h-1.1C156.2,33.3,156.6,31.8,157.2,31.1z M199.1,31.1c0.4-0.4,0.9-0.6,1.7-0.8
		c0.5,0.1,0.9,0.2,1.1,0.4c0.5,0.4,0.8,1.1,0.8,2.2c0,1.2-0.2,1.9-0.6,2.2c-0.4,0.3-1.4,0.5-3.1,0.5H198
		C198.1,33.3,198.5,31.8,199.1,31.1z"/>
</g>
<path d="M48.4,48c1.5-3.6,2.3-8.8,2.3-15.4s-0.8-11.8-2.3-15.4c-1.5-3.6-3.9-6.2-7.1-7.6c-3-1.3-7.1-2.1-12.4-2.1
	c-5.1,0.1-11.2,0.3-18.2,0.7v49c6,0.4,12.2,0.6,18.4,0.7c5.2-0.1,9.2-0.8,12.2-2.1C44.5,54.2,46.9,51.7,48.4,48z M36.9,43.8
	c-0.9,1.9-2.6,2.8-5.3,2.8l-3,0c-0.3,0-0.6,0-0.9,0l-5.5-0.1v-28h3.9v0h5.5c2.6,0,4.4,0.9,5.3,2.8c0.9,1.9,1.3,5.6,1.3,11.3
	S37.8,42,36.9,43.8z"/>
<rect x="60.1" y="21.6" width="11" height="35.5"/>
<path d="M60.1,9.7v3.6c0,2.9,1.4,4.4,4.3,4.4h2.5c2.9,0,4.3-1.5,4.3-4.4V9.7c0-2.9-1.4-4.4-4.3-4.4h-2.4C61.5,5.3,60.1,6.8,60.1,9.7
	z"/>
<path d="M95.9,21.6v-2.3c0-1.4,0.2-2.3,0.7-2.9c0.5-0.5,1.4-0.8,2.7-0.8h3.9h2.4l1.4-8.9c-2.7-0.5-6.2-0.9-10.3-1
	c-7.9,0.3-11.9,4.2-11.9,11.5v4.3l-6,0.4v8.6H81h3.9v26.6h11.1V30.5h3.9h4.6v-8.9H95.9z"/>
<polygon points="105.3,21.9 105.3,30.5 108.3,30.5 108.3,21.8 "/>
<path d="M126.3,21.6v-2.3c0-1.4,0.2-2.3,0.7-2.9c0.5-0.5,1.4-0.8,2.7-0.8h3.9h2.4l1.4-8.9c-2.7-0.5-6.2-0.9-10.3-1
	c-7.9,0.3-11.9,4.2-11.9,11.5v4.3l-6,0.4v8.6h2.1h3.9v26.6h11.1V30.5h3.9h4.6v-8.9H126.3z"/>
<path d="M175.2,33.2c0-4.3-1.5-7.4-4.4-9.5c-2.5-1.8-6.5-2.9-12-3.1c-6.4,0.2-11.1,1.6-13.9,4.3c-3,2.9-4.5,7.8-4.5,14.7
	c0,6.2,1.6,10.8,4.7,13.8c2.9,2.8,7.6,4.3,14,4.5c6.2-0.2,11.3-1.3,15.1-3.2l-1.3-8.6c-3.6,0.3-7.2,0.4-10.6,0.4c-0.4,0-0.7,0-1,0
	c-1,0-1.9,0-2.9,0c-1.9,0-3.3-0.3-4.2-0.9c-0.9-0.6-1.5-1.6-1.7-3.1h3.9c0,0,0,0,0,0h5.1c5.1,0,8.7-0.7,10.7-2.2
	C174.2,39,175.2,36.6,175.2,33.2z M164.1,35.1c-0.4,0.3-1.4,0.5-3.1,0.5h-3.9h-1.1h-3.9c0.1-2.3,0.5-3.8,1.1-4.5
	c0.6-0.7,1.9-1,3.8-0.9c0.7,0,1.3,0,1.8,0.1c0.6-0.1,1.3-0.2,2.1-0.1c1.4,0,2.4,0.2,2.9,0.5c0.5,0.4,0.8,1.1,0.8,2.2
	C164.8,34.1,164.6,34.8,164.1,35.1z"/>
<path d="M214.8,46.1c-3.6,0.3-7.2,0.4-10.6,0.4c-0.4,0-0.7,0-1,0c-1,0-1.9,0-2.9,0c-1.9,0-3.3-0.3-4.2-0.9c-0.9-0.6-1.5-1.6-1.7-3.1
	h3.9c0,0,0,0,0,0h5.1c5.1,0,8.7-0.7,10.7-2.2c2.1-1.4,3.1-3.8,3-7.2c0-4.3-1.5-7.4-4.4-9.5c-2.5-1.8-6.5-2.9-12-3.1
	c-6.4,0.2-11.1,1.6-13.9,4.3c-3,2.9-4.5,7.8-4.5,14.7c0,6.2,1.6,10.8,4.7,13.8c2.9,2.8,7.6,4.3,14,4.5c6.2-0.2,11.3-1.3,15.1-3.2
	L214.8,46.1z M195.2,31.1c0.6-0.7,1.9-1,3.8-0.9c0.7,0,1.3,0,1.8,0.1c0.6-0.1,1.3-0.2,2.1-0.1c1.4,0,2.4,0.2,2.9,0.5
	c0.5,0.4,0.8,1.1,0.8,2.2c0,1.2-0.2,1.9-0.6,2.2c-0.4,0.3-1.4,0.5-3.1,0.5h-3.9H198h-3.9C194.2,33.3,194.6,31.8,195.2,31.1z"/>
</svg>
