<?xml version="1.0" encoding="utf-8"?>
<!-- Generator: Adobe Illustrator 19.2.1, SVG Export Plug-In . SVG Version: 6.00 Build 0)  -->
<svg version="1.1" id="Layer_1" xmlns="http://www.w3.org/2000/svg" xmlns:xlink="http://www.w3.org/1999/xlink" x="0px" y="0px"
	 viewBox="0 0 245.5 85.9" style="enable-background:new 0 0 245.5 85.9;" xml:space="preserve">
<style type="text/css">
	.st0{fill:#FFFFFF;}
	.st1{fill:url(#SVGID_1_);}
	.st2{fill:url(#SVGID_2_);}
	.st3{fill:url(#SVGID_3_);}
	.st4{fill:url(#SVGID_4_);}
	.st5{fill:url(#SVGID_5_);}
	.st6{fill:url(#SVGID_6_);}
	.st7{fill:#FFF200;}
</style>
<rect x="7.5" y="5.2" class="st0" width="221.6" height="61.6"/>
<rect x="16.4" y="19.1" class="st0" width="221.6" height="61.6"/>
<g>
	<g>
		<linearGradient id="SVGID_1_" gradientUnits="userSpaceOnUse" x1="17.9449" y1="41.5237" x2="223.5477" y2="41.5237">
			<stop  offset="0" style="stop-color:#FCD800"/>
			<stop  offset="8.788961e-02" style="stop-color:#F9C42E"/>
			<stop  offset="0.2318" style="stop-color:#F6A74A"/>
			<stop  offset="0.3789" style="stop-color:#F38F58"/>
			<stop  offset="0.5278" style="stop-color:#F27D5E"/>
			<stop  offset="0.6792" style="stop-color:#F16F61"/>
			<stop  offset="0.8345" style="stop-color:#F16563"/>
			<stop  offset="1" style="stop-color:#F16263"/>
		</linearGradient>
		<path class="st1" d="M58.8,25.2v-8.9H43.9v0.2c-1.6-0.2-3.4-0.2-5.3-0.2c-5.6,0-12.6,0.2-20.9,0.7v49c4,0.3,8,0.5,12,0.6
			c0.9,0.2,1.9,0.3,3,0.3c1,0,1.9-0.1,2.7-0.2c1.1,0,2.1,0,3.2,0c3.3,0,6.2-0.2,8.7-0.7h11.6v-8.2c0.1-0.3,0.3-0.5,0.4-0.8
			c1.5-3.6,2.3-8.8,2.3-15.4S60.7,29.6,59.2,26C59,25.7,58.9,25.5,58.8,25.2z M43.9,52.7C43.9,52.7,43.9,52.7,43.9,52.7
			c-0.3,0.7-0.7,1.2-1.3,1.6c-1.1,0.4-2.3,0.6-3.6,0.6c-1.5,0-2.5-0.4-3.1-1.3c-0.5-0.9-0.8-2.9-0.8-5.9c0-3.6,0.3-5.9,0.9-6.9
			c0.6-1,1.7-1.5,3.3-1.5c1.5,0,3.1,0.3,4.6,0.9V52.7z M33.3,29.5c-0.1,0-0.2,0-0.3,0v-2.1h5.5c2.6,0,4.4,0.9,5.3,2.8
			c0.1,0.2,0.1,0.3,0.2,0.5c0,0.6,0.1,1.1,0.1,1.7C41.5,30.4,37.8,29.5,33.3,29.5z"/>
		<linearGradient id="SVGID_2_" gradientUnits="userSpaceOnUse" x1="17.9449" y1="20.4016" x2="223.5477" y2="20.4016">
			<stop  offset="0" style="stop-color:#FCD800"/>
			<stop  offset="8.788961e-02" style="stop-color:#F9C42E"/>
			<stop  offset="0.2318" style="stop-color:#F6A74A"/>
			<stop  offset="0.3789" style="stop-color:#F38F58"/>
			<stop  offset="0.5278" style="stop-color:#F27D5E"/>
			<stop  offset="0.6792" style="stop-color:#F16F61"/>
			<stop  offset="0.8345" style="stop-color:#F16563"/>
			<stop  offset="1" style="stop-color:#F16263"/>
		</linearGradient>
		<path class="st2" d="M77.6,14.2h-1.9h-4.4h-1.9c-2.9,0-4.3,1.5-4.3,4.4v3.6c0,2.9,1.4,4.4,4.3,4.4h1.9h4.4h1.9
			c2.9,0,4.3-1.5,4.3-4.4v-3.6C82,15.7,80.5,14.2,77.6,14.2z"/>
		<linearGradient id="SVGID_3_" gradientUnits="userSpaceOnUse" x1="17.9449" y1="40.2458" x2="223.5477" y2="40.2458">
			<stop  offset="0" style="stop-color:#FCD800"/>
			<stop  offset="8.788961e-02" style="stop-color:#F9C42E"/>
			<stop  offset="0.2318" style="stop-color:#F6A74A"/>
			<stop  offset="0.3789" style="stop-color:#F38F58"/>
			<stop  offset="0.5278" style="stop-color:#F27D5E"/>
			<stop  offset="0.6792" style="stop-color:#F16F61"/>
			<stop  offset="0.8345" style="stop-color:#F16563"/>
			<stop  offset="1" style="stop-color:#F16263"/>
		</linearGradient>
		<path class="st3" d="M145.5,30.4h-1.9H137v-2.3c0-1.4,0.2-2.3,0.7-2.9c0.5-0.5,1.4-0.8,2.7-0.8h4.4h1.9l1.4-8.9
			c-3.3-0.7-7.6-1-13-1c-0.1,0-0.3,0-0.4,0c-0.5,0-1,0-1.5,0c-8.7,0-13.1,3.9-13.1,11.6v4.3l-5,0.3v-0.3h-1.9h-6.6v-2.3
			c0-1.4,0.2-2.3,0.7-2.9c0.5-0.5,1.4-0.8,2.7-0.8h4.4h1.9l1.4-8.9c-3.3-0.7-7.6-1-13-1c-0.1,0-0.3,0-0.4,0c-0.5,0-1,0-1.5,0
			c-8.7,0-13.1,3.9-13.1,11.6v4.3l-6,0.4v8.6h1.9h4.1v26.6h1.9h13.1h1.9V39.4h6.6h0.9h1h0.9h4.1v26.6h1.9h13.1h1.9V39.4h6.6h1.9
			V30.4z"/>
		<linearGradient id="SVGID_4_" gradientUnits="userSpaceOnUse" x1="17.9449" y1="48.1267" x2="223.5477" y2="48.1267">
			<stop  offset="0" style="stop-color:#FCD800"/>
			<stop  offset="8.788961e-02" style="stop-color:#F9C42E"/>
			<stop  offset="0.2318" style="stop-color:#F6A74A"/>
			<stop  offset="0.3789" style="stop-color:#F38F58"/>
			<stop  offset="0.5278" style="stop-color:#F27D5E"/>
			<stop  offset="0.6792" style="stop-color:#F16F61"/>
			<stop  offset="0.8345" style="stop-color:#F16563"/>
			<stop  offset="1" style="stop-color:#F16263"/>
		</linearGradient>
		<path class="st4" d="M172.2,51.5c5.1,0,8.7-0.7,10.8-2.2c2.1-1.4,3.1-3.8,3-7.2c0-4.3-1.5-7.4-4.4-9.5c-2.9-2.1-7.6-3.1-14.1-3.1
			c-0.3,0-0.6,0-0.8,0c-0.3,0-0.7,0-1,0c-7.4,0-12.6,1.4-15.6,4.3c-3,2.9-4.5,7.8-4.5,14.7c0,6.2,1.6,10.8,4.7,13.8
			s8.3,4.5,15.5,4.5c0.4,0,0.7,0,1.1,0c0.3,0,0.5,0,0.8,0c7.3,0,13.1-1.1,17.4-3.3l-1.3-8.9c-0.6,0.1-1.2,0.1-1.8,0.2l0-0.2
			c-4.5,0.5-8.8,0.7-13,0.8c-1.6,0-2.9-0.3-3.7-0.8c-0.9-0.6-1.5-1.6-1.7-3.1h7H172.2z M169.2,44c-0.4,0.3-1.4,0.5-3.1,0.5H163
			c0.1-2.3,0.5-3.8,1.1-4.5c0.5-0.5,1.4-0.8,2.6-0.9c1,0.1,1.8,0.2,2.2,0.5c0.5,0.4,0.8,1.1,0.8,2.2C169.8,42.9,169.6,43.7,169.2,44
			z"/>
		<linearGradient id="SVGID_5_" gradientUnits="userSpaceOnUse" x1="17.9449" y1="48.1267" x2="223.5477" y2="48.1267">
			<stop  offset="0" style="stop-color:#FCD800"/>
			<stop  offset="8.788961e-02" style="stop-color:#F9C42E"/>
			<stop  offset="0.2318" style="stop-color:#F6A74A"/>
			<stop  offset="0.3789" style="stop-color:#F38F58"/>
			<stop  offset="0.5278" style="stop-color:#F27D5E"/>
			<stop  offset="0.6792" style="stop-color:#F16F61"/>
			<stop  offset="0.8345" style="stop-color:#F16563"/>
			<stop  offset="1" style="stop-color:#F16263"/>
		</linearGradient>
		<path class="st5" d="M223.7,54.8l0-0.2c-4.5,0.5-8.8,0.7-13,0.8c-1.6,0-2.9-0.3-3.7-0.8c-0.9-0.6-1.5-1.6-1.7-3.1h7h1.9
			c5.1,0,8.7-0.7,10.8-2.2c2.1-1.4,3.1-3.8,3-7.2c0-4.3-1.5-7.4-4.4-9.5c-2.9-2.1-7.6-3.1-14.1-3.1c-0.3,0-0.6,0-0.8,0
			c-0.3,0-0.7,0-1,0c-7.4,0-12.6,1.4-15.6,4.3c-3,2.9-4.5,7.8-4.5,14.7c0,6.2,1.6,10.8,4.7,13.8s8.3,4.5,15.5,4.5c0.4,0,0.7,0,1.1,0
			c0.3,0,0.5,0,0.8,0c7.3,0,13.1-1.1,17.4-3.3l-1.3-8.9C224.9,54.7,224.3,54.7,223.7,54.8z M206,40c0.5-0.5,1.4-0.8,2.6-0.9
			c1,0.1,1.8,0.2,2.2,0.5c0.5,0.4,0.8,1.1,0.8,2.2c0,1.2-0.2,1.9-0.6,2.2c-0.4,0.3-1.4,0.5-3.1,0.5h-3.1C205,42.1,205.4,40.6,206,40
			z"/>
		<linearGradient id="SVGID_6_" gradientUnits="userSpaceOnUse" x1="17.9449" y1="48.198" x2="223.5477" y2="48.198">
			<stop  offset="0" style="stop-color:#FCD800"/>
			<stop  offset="8.788961e-02" style="stop-color:#F9C42E"/>
			<stop  offset="0.2318" style="stop-color:#F6A74A"/>
			<stop  offset="0.3789" style="stop-color:#F38F58"/>
			<stop  offset="0.5278" style="stop-color:#F27D5E"/>
			<stop  offset="0.6792" style="stop-color:#F16F61"/>
			<stop  offset="0.8345" style="stop-color:#F16563"/>
			<stop  offset="1" style="stop-color:#F16263"/>
		</linearGradient>
		<polygon class="st6" points="67,30.4 65.2,30.4 65.2,65.9 67,65.9 80,65.9 81.9,65.9 81.9,30.4 80,30.4 		"/>
	</g>
	<path d="M52.1,18.4c-2.1-1-4.9-1.6-8.2-1.9v8.2c0,1.5,0.1,3.5,0.2,6c0.7,2,1.1,5.6,1.1,10.7c0,5.6-0.4,9.4-1.3,11.2v1.1
		c-0.4,0.2-0.8,0.4-1.3,0.5c-1,0.8-2.3,1.2-4,1.2L33,55.4v-26c-4.6,0-7.9,1.4-10,3.9c-2.2,2.6-3.2,7.4-3.2,14.4c0,6.2,1,11,3.1,14.2
		c1.6,2.5,3.8,4,6.8,4.5c1.9,0.1,3.8,0.1,5.7,0.1c4.9-0.6,8.3-2.7,10.3-6.5l1.2,5.8h0.3c1.9-0.4,3.5-0.8,4.9-1.5
		c2.9-1.3,5.2-3.6,6.7-6.8V25.2C57.3,22,55,19.7,52.1,18.4z"/>
	<rect x="67" y="30.4" width="13" height="35.5"/>
	<path d="M106.7,30.4h-1.9v-2.3c0-1.4,0.2-2.3,0.7-2.9c0.5-0.5,1.4-0.8,2.7-0.8h1.9h4.4l1.4-8.9c-3-0.6-6.9-0.9-11.5-1
		c-8.4,0.1-12.7,4-12.7,11.6v4.3l-6,0.4v8.6h4.1h1.9v26.6h13.1V39.4h1.9h6.6v-8.9H106.7z"/>
	<polygon class="st7" points="114.2,30.8 114.2,39.4 115.2,39.4 115.2,30.7 	"/>
	<path d="M137,30.4h-1.9v-2.3c0-1.4,0.2-2.3,0.7-2.9c0.5-0.5,1.4-0.8,2.7-0.8h1.9h4.4l1.4-8.9c-3-0.6-6.9-0.9-11.5-1
		c-8.4,0.1-12.7,4-12.7,11.6v4.3l-6,0.4v8.6h4.1h1.9v26.6h13.1V39.4h1.9h6.6v-8.9H137z"/>
	<path d="M181.1,49.3c2.1-1.4,3.1-3.8,3-7.2c0-4.3-1.5-7.4-4.4-9.5c-2.7-2-7.1-3-13.1-3.1c-6.9,0.1-11.9,1.5-14.8,4.3
		c-3,2.9-4.5,7.8-4.5,14.7c0,6.2,1.6,10.8,4.7,13.8c3,2.9,7.9,4.4,14.8,4.5c6.8-0.1,12.2-1.2,16.3-3.2l-1.3-8.8
		c-4.3,0.4-8.5,0.6-12.6,0.6c-0.2,0-0.3,0-0.5,0c-0.5,0-0.9,0-1.4,0c-1.9,0-3.3-0.3-4.2-0.9c-0.9-0.6-1.5-1.6-1.7-3.1h1.9h7
		C175.4,51.5,179,50.7,181.1,49.3z M166.1,44.4H163h-1.9c0.1-2.3,0.5-3.8,1.1-4.5c0.6-0.7,1.9-1,3.8-0.9c0.3,0,0.5,0,0.7,0
		c0.4,0,0.7,0,1.2,0c1.4,0,2.4,0.2,2.9,0.5c0.5,0.4,0.8,1.1,0.8,2.2c0,1.2-0.2,1.9-0.6,2.2c-0.4,0.3-1.4,0.5-3.1,0.5H166.1z"/>
	<path d="M223.7,54.8c-4.3,0.4-8.5,0.6-12.6,0.6c-0.2,0-0.3,0-0.5,0c-0.5,0-0.9,0-1.4,0c-1.9,0-3.3-0.3-4.2-0.9
		c-0.9-0.6-1.5-1.6-1.7-3.1h1.9h7c5.1,0,8.7-0.7,10.8-2.2c2.1-1.4,3.1-3.8,3-7.2c0-4.3-1.5-7.4-4.4-9.5c-2.7-2-7.1-3-13.1-3.1
		c-6.9,0.1-11.9,1.5-14.8,4.3c-3,2.9-4.5,7.8-4.5,14.7c0,6.2,1.6,10.8,4.7,13.8c3,2.9,7.9,4.4,14.8,4.5c6.8-0.1,12.2-1.2,16.3-3.2
		L223.7,54.8z M204.1,40c0.6-0.7,1.9-1,3.8-0.9c0.3,0,0.5,0,0.7,0c0.4,0,0.7,0,1.2,0c1.4,0,2.4,0.2,2.9,0.5c0.5,0.4,0.8,1.1,0.8,2.2
		c0,1.2-0.2,1.9-0.6,2.2c-0.4,0.3-1.4,0.5-3.1,0.5H208h-3.1H203C203.1,42.1,203.5,40.6,204.1,40z"/>
</g>
<path d="M80.1,22.2v-3.6c0-2.9-1.4-4.4-4.3-4.4h-4.4c-2.9,0-4.3,1.5-4.3,4.4v3.6c0,2.9,1.4,4.4,4.3,4.4h4.4
	C78.6,26.6,80.1,25.1,80.1,22.2z"/>
</svg>
