<svg id="Layer_1" xmlns="http://www.w3.org/2000/svg" viewBox="0 0 226.1 66.1"><style>.st0{fill:#f1f2f2}.st1{fill:url(#SVGID_1_)}.st2{fill:url(#SVGID_2_)}.st3{fill:url(#SVGID_3_)}.st4{fill:url(#SVGID_4_)}</style><path class="st0" d="M4.5 0h221.6v61.6H4.5z"/><path class="st0" d="M0 4.5h221.6v61.6H0z"/><linearGradient id="SVGID_1_" gradientUnits="userSpaceOnUse" x1="6.813" y1="11.539" x2="221.505" y2="11.539"><stop offset="0" stop-color="#fcd800"/><stop offset=".088" stop-color="#f9c42e"/><stop offset=".232" stop-color="#f6a74a"/><stop offset=".379" stop-color="#f38f58"/><stop offset=".528" stop-color="#f27d5e"/><stop offset=".679" stop-color="#f16f61"/><stop offset=".835" stop-color="#f16563"/><stop offset="1" stop-color="#f16263"/></linearGradient><path class="st1" d="M60.5 17.8h10.2c2.9 0 4.3-1.5 4.3-4.4V9.7c0-2.9-1.4-4.4-4.3-4.4H60.5c-2.9 0-4.3 1.5-4.3 4.4v3.6c0 3 1.4 4.5 4.3 4.5z"/><linearGradient id="SVGID_2_" gradientUnits="userSpaceOnUse" x1="6.838" y1="32.59" x2="221.531" y2="32.59"><stop offset="0" stop-color="#fcd800"/><stop offset=".088" stop-color="#f9c42e"/><stop offset=".232" stop-color="#f6a74a"/><stop offset=".379" stop-color="#f38f58"/><stop offset=".528" stop-color="#f27d5e"/><stop offset=".679" stop-color="#f16f61"/><stop offset=".835" stop-color="#f16563"/><stop offset="1" stop-color="#f16263"/></linearGradient><path class="st2" d="M45.2 9.6C42 8.1 37.5 7.4 31.7 7.4H27.8c-5.6 0-12.6.2-20.9.7v49c6.9.5 13.8.7 20.9.7h3.8c5.8 0 10.3-.7 13.5-2.2 3.2-1.4 5.5-4 7.1-7.6 1.5-3.6 2.3-8.8 2.3-15.4s-.8-11.8-2.3-15.4c-1.5-3.7-3.8-6.2-7-7.6zm-19.1 37v-28h1.7c2.6 0 4.4.9 5.3 2.8.9 1.9 1.3 5.6 1.3 11.3 0 5.6-.4 9.4-1.3 11.3-.8 1.7-2.3 2.6-4.4 2.8l-2.6-.2z"/><linearGradient id="SVGID_3_" gradientUnits="userSpaceOnUse" x1="6.813" y1="39.335" x2="221.505" y2="39.335"><stop offset="0" stop-color="#fcd800"/><stop offset=".088" stop-color="#f9c42e"/><stop offset=".232" stop-color="#f6a74a"/><stop offset=".379" stop-color="#f38f58"/><stop offset=".528" stop-color="#f27d5e"/><stop offset=".679" stop-color="#f16f61"/><stop offset=".835" stop-color="#f16563"/><stop offset="1" stop-color="#f16263"/></linearGradient><path class="st3" d="M60.1 21.6h-3.8v35.5H75V21.6H60.1z"/><linearGradient id="SVGID_4_" gradientUnits="userSpaceOnUse" x1="6.813" y1="31.808" x2="221.505" y2="31.808"><stop offset="0" stop-color="#fcd800"/><stop offset=".088" stop-color="#f9c42e"/><stop offset=".232" stop-color="#f6a74a"/><stop offset=".379" stop-color="#f38f58"/><stop offset=".528" stop-color="#f27d5e"/><stop offset=".679" stop-color="#f16f61"/><stop offset=".835" stop-color="#f16563"/><stop offset="1" stop-color="#f16263"/></linearGradient><path class="st4" d="M214.8 46.1l-.1-.4c-3.9.4-7.8.7-11.5.7-1.4-.1-2.4-.4-3.2-.8-.9-.6-1.5-1.6-1.7-3.1H207.2c5.1 0 8.7-.7 10.8-2.2s3.1-3.8 3-7.2c0-4.3-1.5-7.4-4.4-9.5-2.9-2.1-7.6-3.1-14.1-3.1H198.6c-7.4 0-12.6 1.4-15.6 4.3-1.9 1.8-3.3 4.5-3.9 8-.1-4.1-1.6-7.2-4.3-9.2-2.9-2.1-7.6-3.1-14.1-3.1H156.8c-7.4 0-12.6 1.4-15.6 4.3-1 1-1.8 2.2-2.5 3.6v-6.9h-8.4v-2.3c0-1.4.2-2.3.7-2.9.5-.5 1.4-.8 2.7-.8h6.3l1.4-8.9c-3.3-.7-7.6-1-13-1H124.5c-8.7 0-13.1 3.9-13.1 11.6v4.3l-3 .2v-.2H100v-2.3c0-1.4.2-2.3.7-2.9.5-.5 1.4-.8 2.7-.8h6.3l1.4-8.9c-3.3-.7-7.6-1-13-1H94.2C85.3 5.7 81 9.5 81 17.3v4.3l-6 .4v8.6h6v26.6h18.9V30.5h11.5v26.6h18.9V30.5h7.6c-.8 2.5-1.2 5.5-1.2 9.1 0 6.2 1.6 10.8 4.7 13.8s8.3 4.5 15.5 4.5h3.9c7.3 0 13.1-1.1 17.4-3.3l-1.3-8.9c-1.3.1-2.6.3-3.8.4l-.1-.4c-3.9.4-7.8.7-11.5.7-1.4-.1-2.4-.4-3.2-.8-.9-.6-1.5-1.6-1.7-3.1H165.5c5.1 0 8.7-.7 10.8-2.2 1.2-.8 2-2 2.5-3.4-.1.8-.1 1.7-.1 2.6 0 6.2 1.6 10.8 4.7 13.8s8.3 4.5 15.5 4.5h3.9c7.3 0 13.1-1.1 17.4-3.3l-1.3-8.9c-1.6.3-2.9.4-4.1.5zm-57.6-15c.4-.4.9-.6 1.7-.8.5.1.9.2 1.1.4.5.4.8 1.1.8 2.2 0 1.2-.2 1.9-.6 2.2-.4.3-1.4.5-3.1.5H156c.2-2.3.6-3.8 1.2-4.5zm41.9 0c.4-.4.9-.6 1.7-.8.5.1.9.2 1.1.4.5.4.8 1.1.8 2.2 0 1.2-.2 1.9-.6 2.2-.4.3-1.4.5-3.1.5h-1c.1-2.3.5-3.8 1.1-4.5z"/><path d="M48.4 48c1.5-3.6 2.3-8.8 2.3-15.4s-.8-11.8-2.3-15.4c-1.5-3.6-3.9-6.2-7.1-7.6-3-1.3-7.1-2.1-12.4-2.1-5.1.1-11.2.3-18.2.7v49c6 .4 12.2.6 18.4.7 5.2-.1 9.2-.8 12.2-2.1 3.2-1.6 5.6-4.1 7.1-7.8zm-11.5-4.2c-.9 1.9-2.6 2.8-5.3 2.8h-3.9l-5.5-.1v-28h9.4c2.6 0 4.4.9 5.3 2.8.9 1.9 1.3 5.6 1.3 11.3s-.4 9.4-1.3 11.2zM60.1 21.6h11v35.5h-11zM60.1 9.7v3.6c0 2.9 1.4 4.4 4.3 4.4h2.5c2.9 0 4.3-1.5 4.3-4.4V9.7c0-2.9-1.4-4.4-4.3-4.4h-2.4c-3 0-4.4 1.5-4.4 4.4zM95.9 21.6v-2.3c0-1.4.2-2.3.7-2.9.5-.5 1.4-.8 2.7-.8h6.3l1.4-8.9c-2.7-.5-6.2-.9-10.3-1-7.9.3-11.9 4.2-11.9 11.5v4.3l-6 .4v8.6h6.1v26.6H96V30.5h8.5v-8.9h-8.6z"/><path d="M105.3 21.9v8.6h3v-8.7zM126.3 21.6v-2.3c0-1.4.2-2.3.7-2.9.5-.5 1.4-.8 2.7-.8h6.3l1.4-8.9c-2.7-.5-6.2-.9-10.3-1-7.9.3-11.9 4.2-11.9 11.5v4.3l-6 .4v8.6h6v26.6h11.1V30.5h8.5v-8.9h-8.5zM175.2 33.2c0-4.3-1.5-7.4-4.4-9.5-2.5-1.8-6.5-2.9-12-3.1-6.4.2-11.1 1.6-13.9 4.3-3 2.9-4.5 7.8-4.5 14.7 0 6.2 1.6 10.8 4.7 13.8 2.9 2.8 7.6 4.3 14 4.5 6.2-.2 11.3-1.3 15.1-3.2l-1.3-8.6c-3.6.3-7.2.4-10.6.4h-3.9c-1.9 0-3.3-.3-4.2-.9-.9-.6-1.5-1.6-1.7-3.1h9c5.1 0 8.7-.7 10.7-2.2 2-1.3 3-3.7 3-7.1zm-11.1 1.9c-.4.3-1.4.5-3.1.5h-8.9c.1-2.3.5-3.8 1.1-4.5.6-.7 1.9-1 3.8-.9.7 0 1.3 0 1.8.1.6-.1 1.3-.2 2.1-.1 1.4 0 2.4.2 2.9.5.5.4.8 1.1.8 2.2.2 1.2 0 1.9-.5 2.2zM214.8 46.1c-3.6.3-7.2.4-10.6.4h-3.9c-1.9 0-3.3-.3-4.2-.9-.9-.6-1.5-1.6-1.7-3.1h9c5.1 0 8.7-.7 10.7-2.2 2.1-1.4 3.1-3.8 3-7.2 0-4.3-1.5-7.4-4.4-9.5-2.5-1.8-6.5-2.9-12-3.1-6.4.2-11.1 1.6-13.9 4.3-3 2.9-4.5 7.8-4.5 14.7 0 6.2 1.6 10.8 4.7 13.8 2.9 2.8 7.6 4.3 14 4.5 6.2-.2 11.3-1.3 15.1-3.2l-1.3-8.5zm-19.6-15c.6-.7 1.9-1 3.8-.9.7 0 1.3 0 1.8.1.6-.1 1.3-.2 2.1-.1 1.4 0 2.4.2 2.9.5.5.4.8 1.1.8 2.2 0 1.2-.2 1.9-.6 2.2-.4.3-1.4.5-3.1.5h-8.8c.1-2.3.5-3.8 1.1-4.5z"/></svg>